<?xml version="1.0" encoding="utf-8"?>
<svg version="1.1" xmlns="http://www.w3.org/2000/svg" xmlns:xlink="http://www.w3.org/1999/xlink" x="0px" y="0px"
	 viewBox="0 590.6 359 96" enable-background="new 0 590.6 359 96" xml:space="preserve">
<g id="Black_bg" display="none">
	<polyline display="inline" points="359,590.6 359,686.6 0,686.6 0,590.6 	"/>
</g>
<g id="original" display="none">
	<g id="Layer_1_1_">
		<g display="inline">
			<g>
				<path d="M269.2,552.3h40.1c22.9,0,34.9,4.6,34.9,33.2c0,28.6-12,33.2-34.9,33.2h-16v23.5h-24.1V552.3z M309.3,599.9
					c5.2,0,10.9-0.6,10.9-14.3c0-13.7-6.3-14.3-11.5-14.3h-16v28.6H309.3z"/>
			</g>
			<g>
				<path d="M351.1,597c0-39.5,17.2-46.4,44.1-46.4s44.1,6.9,44.1,45.8c0,39.5-17.2,46.4-44.1,46.4
					C368.3,643.4,351.1,636.5,351.1,597 M414.6,600.4v-6.9c0-17.2-4-22.3-19.5-22.3c-14.9,0-18.9,5.2-18.9,22.3v6.9
					c0,17.2,4.6,23.5,19.5,23.5C410.6,623.3,414.6,617.6,414.6,600.4"/>
			</g>
			<g>
				<polygon points="450.7,552.3 474.2,552.3 474.2,621.6 514.9,621.6 514.9,641.7 450.7,641.7 				"/>
			</g>
			<g>
				<rect x="524.6" y="552.3" width="24.1" height="89.9"/>
			</g>
			<g>
				<polygon points="587,572.9 558.4,572.9 558.4,552.3 639.7,552.3 639.7,572.9 611.1,572.9 611.1,641.7 587,641.7 				"/>
			</g>
			<g>
				<rect x="649.5" y="552.3" width="24.1" height="89.9"/>
			</g>
			<g>
				<polygon points="688.4,552.3 752.5,552.3 752.5,572.9 712.5,572.9 712.5,586.7 744.5,586.7 744.5,607.3 712.5,607.3
					712.5,621.6 752.5,621.6 752.5,641.7 688.4,641.7 				"/>
			</g>
			<g>
				<polygon points="788.1,572.9 759.4,572.9 759.4,552.3 840.7,552.3 840.7,572.9 812.1,572.9 812.1,641.7 788.1,641.7 				"/>
			</g>
			<g>
				<polygon points="27.5,553.5 22.9,540.9 30.4,519.7 37.8,540.9 33.8,553.5 32.1,552.9 36.1,540.9 30.4,525.4 25.2,540.9
					29.2,552.9 				"/>
			</g>
			<g>
				<line fill="none" x1="20.6" y1="552.9" x2="20.6" y2="552.9"/>
			</g>
			<g>
				<path d="M155.8,708.1H39.5v-6.9c0-4-2.9-7.4-6.9-7.4h-5.7v-16.6H20V597c-11.5-0.6-20-10.9-20-22.3c0-12,9.2-22.3,20.6-22.3h19.5
					v1.7H20.6c-10.3,0-18.3,9.7-18.3,20.6c0,10.9,8.6,20,18.9,20.6h1.1v1.1V676h7.4v16h3.4c5.2,0.6,8.6,4.6,8.6,9.7v4h112.3v-5.2
					c0-4,2.9-9.7,9.2-9.7h3.4v-16h7.4v-80.2h1.1c10.9,0,18.9-9.7,18.9-20.6c0-10.9-8.6-20.6-18.9-20.6h-20v-1.7h20
					c11.5,0,20.6,10.3,20.6,22.3c0,12-8.6,21.8-20,22.3v80.2h-7.4v16h-5.2c-5.2,0-7.4,4.6-7.4,7.4L155.8,708.1L155.8,708.1z"/>
			</g>
			<g>
				<polygon points="162.1,553.5 157.5,540.9 165.5,519.7 173,540.9 168.4,553.5 166.7,552.9 170.7,540.9 165.5,525.4 159.8,540.9
					163.8,552.9 				"/>
			</g>
			<g>
				<path d="M174.7,597v-1.1h0.6c3.4-0.6,6.3-3.4,6.3-7.4s-2.9-6.9-6.3-7.4v-1.1c4,0.6,7.4,4,7.4,8.6c0,2.9-1.1,5.7-3.4,6.9
					c8.6-2.3,14.9-10.3,14.9-20s-6.3-17.8-14.9-20c2.3,1.7,3.4,4,3.4,6.9c0,4.6-3.4,8.6-7.4,8.6v-1.1c3.4,0,6.3-3.4,6.3-7.4
					s-2.9-6.9-6.3-7.4h-0.6v-1.1h0.6c11.5,0,20,10.3,20,22.3c0,12-9.2,21.8-20,22.3L174.7,597z"/>
			</g>
			<g>
				<path d="M20.6,597c-11.5,0-20-10.3-20-22.3c0-12,9.2-21.8,20-22.3h0.6v1.1l-0.6,0.6c-3.4,0.6-6.3,3.4-6.3,7.4
					c0,4,2.9,6.9,6.3,7.4v1.1c-4-0.6-7.4-4-7.4-8.6c0-2.9,1.1-5.2,3.4-6.9c-8.6,2.3-14.9,10.3-14.9,20s6.3,18.3,14.9,20
					c-2.3-1.7-3.4-4-3.4-6.9c0-4.6,3.4-8.6,7.4-8.6v1.1c-3.4,0-6.3,3.4-6.3,7.4s2.9,6.9,6.3,7.4h0.6v1.1L20.6,597z"/>
			</g>
			<g>
				<path d="M68.7,681.8h-5.2c-0.6,0-0.6,0-0.6-0.6V676c0-0.6,0-0.6,0.6-0.6h5.2c0.6,0,0.6,0,0.6,0.6v5.2
					C69.3,681.2,69.3,681.8,68.7,681.8 M64.1,680h4v-4h-4V680z"/>
			</g>
			<g>
				<path d="M84.8,696.6h-5.2c-0.6,0-0.6-0.6-0.6-0.6v-5.2c0-0.6,0-0.6,0.6-0.6h5.2c0.6,0,0.6,0,0.6,0.6v5.2
					C85.3,696.6,84.8,696.6,84.8,696.6 M79.6,695.5h4v-4h-4V695.5z"/>
			</g>
			<g>
				<path d="M52.7,666.3h-5.2c-0.6,0-0.6,0-0.6-0.6V660c0-0.6,0.6-0.6,0.6-0.6h5.2c0.6,0,0.6,0.6,0.6,0.6v5.7
					C53.8,665.7,53.3,666.3,52.7,666.3 M48.1,665.1h4v-4h-4V665.1z"/>
			</g>
			<g>
				<path d="M52.7,696.6h-5.2c-0.6,0-0.6-0.6-0.6-0.6v-5.2c0-0.6,0-0.6,0.6-0.6h5.2c0.6,0,0.6,0,0.6,0.6v5.2
					C53.8,696.6,53.3,696.6,52.7,696.6 M48.1,695.5h4v-4h-4V695.5z"/>
			</g>
			<g>
				<path d="M116.3,696.6h-5.2c-0.6,0-0.6-0.6-0.6-0.6v-5.2c0-0.6,0-0.6,0.6-0.6h5.2c0.6,0,0.6,0,0.6,0.6v5.2
					C116.8,696.6,116.3,696.6,116.3,696.6 M111.1,695.5h4v-4h-4V695.5z"/>
			</g>
			<g>
				<path d="M131.7,681.8h-5.2c-0.6,0-0.6,0-0.6-0.6V676c0-0.6,0-0.6,0.6-0.6h5.2c0.6,0,0.6,0,0.6,0.6v5.2
					C132.3,681.2,132.3,681.8,131.7,681.8 M127.1,680h4v-4h-4V680z"/>
			</g>
			<g>
				<path d="M147.8,666.3h-5.2c-0.6,0-0.6,0-0.6-0.6V660c0-0.6,0.6-0.6,0.6-0.6h5.2c0.6,0,0.6,0.6,0.6,0.6v5.7
					C148.3,665.7,148.3,666.3,147.8,666.3 M143.2,665.1h4v-4h-4V665.1z"/>
			</g>
			<g>
				<path d="M147.8,696.6h-5.2c-0.6,0-0.6-0.6-0.6-0.6v-5.2c0-0.6,0-0.6,0.6-0.6h5.2c0.6,0,0.6,0,0.6,0.6v5.2
					C148.3,696.6,148.3,696.6,147.8,696.6 M143.2,695.5h4v-4h-4V695.5z"/>
			</g>
			<g>
				<path d="M174.7,676.6h-19.5c-0.6,0-0.6-0.6-0.6-0.6V552.9c0-0.6,0.6-0.6,0.6-0.6h19.5c0.6,0,0.6,0,0.6,0.6V676
					C175.8,676.6,175.3,676.6,174.7,676.6 M156.4,675.5h18.3v-122h-18.3V675.5z"/>
			</g>
			<g>
				<path d="M40.1,676.6H20.6c-0.6,0-0.6-0.6-0.6-0.6V552.9c0-0.6,0.6-0.6,0.6-0.6h19.5c0.6,0,0.6,0,0.6,0.6V676
					C40.7,676.6,40.7,676.6,40.1,676.6 M21.2,675.5h18.3v-122H21.2V675.5z"/>
			</g>
			<g>
				<rect x="29.8" y="523.1" width="1.1" height="29.8"/>
			</g>
			<g>
				<rect x="24.1" y="540.3" width="13.2" height="1.1"/>
			</g>
			<g>
				<path d="M32.6,693.2h-4.6c-0.6,0-0.6,0-0.6-0.6v-16c0-0.6,0-0.6,0.6-0.6h4.6c0.6,0,0.6,0.6,0.6,0.6v16
					C33.2,692.6,33.2,693.2,32.6,693.2 M28.6,691.5h3.4v-14.9h-3.4V691.5z"/>
			</g>
			<g>
				<path d="M155.2,707.5H40.7c-0.6,0-0.6,0-0.6-0.6v-5.7c0-4-2.9-7.4-7.4-8v-1.1c4.6,0.6,8.6,4.6,8.6,9.2v5.2h113.4v-5.2
					c0-4.6,3.4-8.6,8.6-9.2v1.1c-4,0.6-7.4,4-7.4,8v5.7C155.8,707.5,155.2,707.5,155.2,707.5"/>
			</g>
			<g>
				<path d="M151.8,704.1H43.5c-0.6,0-0.6-0.6-0.6-0.6v-2.3c0-5.7-4.6-10.9-10.3-11.5v-1.1c6.3,0.6,11.5,5.7,11.5,12.6v1.7h107.1
					v-1.7c0-6.3,5.2-12,11.5-12.6v1.1c-5.7,0.6-10.3,5.2-10.3,11.5v2.3C152.3,704.1,152.3,704.1,151.8,704.1"/>
			</g>
			<g>
				<path d="M40.7,563.8H20v-6.3h20.6V563.8z M21.2,562.6h18.3v-4H21.2V562.6z"/>
			</g>
			<g>
				<polygon points="33.2,581 32.1,580.4 39.5,569.5 39.5,565.5 30.9,577.5 29.8,576.9 40.7,561.5 40.7,570.1 				"/>
			</g>
			<g>
				<polygon points="20,599.9 20,591.3 27.5,580.4 28.6,581 21.2,591.3 21.8,595.8 29.8,583.2 30.9,584.4 				"/>
			</g>
			<g>
				<polygon points="33.2,615.3 32.1,614.2 39.5,603.9 39.5,599.9 30.9,611.9 29.8,611.3 40.7,595.8 40.7,604.4 				"/>
			</g>
			<g>
				<polygon points="20,634.2 20,625.1 27.5,614.2 28.6,615.3 21.2,625.6 21.8,629.6 29.8,617.6 30.9,618.8 				"/>
			</g>
			<g>
				<polygon points="33.2,649.1 32.1,648 39.5,637.7 39.5,633.6 30.9,645.7 29.8,645.1 40.7,629.6 40.7,638.2 				"/>
			</g>
			<g>
				<polygon points="20,667.4 20,658.8 27.5,648 28.6,649.1 21.2,659.4 21.8,663.4 29.8,651.4 30.9,652 				"/>
			</g>
			<g>
				<path d="M40.7,671.4H20v-6.3h20.6V671.4z M21.2,670.3h18.3v-4H21.2V670.3z"/>
			</g>
			<g>
				<path d="M40.7,667.4l-20-28.6v-9.2l20,28.6V667.4z M21.8,633.6v4.6l17.8,25.2v-4.6L21.8,633.6z"/>
			</g>
			<g>
				<path d="M40.7,634.2l-20-29.2v-9.2l20,29.2V634.2z M21.8,599.9v4.6l17.8,25.8v-4.6L21.8,599.9z"/>
			</g>
			<g>
				<path d="M40.7,599.9l-20-29.2v-9.2l20,29.2V599.9z M21.8,565.5v4.6l17.8,25.8v-4.6L21.8,565.5z"/>
			</g>
			<g>
				<path d="M167.2,693.2h-4.6c-0.6,0-0.6,0-0.6-0.6v-16c0-0.6,0-0.6,0.6-0.6h4.6c0.6,0,0.6,0,0.6,0.6v16
					C168.4,692.6,167.8,693.2,167.2,693.2 M163.8,691.5h3.4v-14.9h-3.4V691.5z"/>
			</g>
			<g>
				<polygon points="155.2,599.9 155.2,591.3 162.7,580.4 163.2,581 156.4,591.3 156.4,595.8 164.9,583.2 165.5,584.4 				"/>
			</g>
			<g>
				<polygon points="167.8,581 167.2,580.4 174.1,569.5 174.1,565.5 165.5,577.5 164.9,576.9 175.3,561.5 175.3,570.1 				"/>
			</g>
			<g>
				<polygon points="168.4,649.1 167.2,648 174.1,637.7 174.1,633.6 165.5,645.7 164.9,645.1 175.3,629.6 175.3,638.2 				"/>
			</g>
			<g>
				<polygon points="155.2,667.4 155.2,658.8 162.7,648 163.2,649.1 156.4,659.4 156.4,663.4 164.9,651.4 165.5,652 				"/>
			</g>
			<g>
				<polygon points="155.2,634.2 155.2,625.1 162.7,614.2 163.2,615.3 156.4,625.6 156.4,629.6 164.9,617.6 165.5,618.2 				"/>
			</g>
			<g>
				<polygon points="167.8,615.3 167.2,614.2 174.1,603.9 174.1,599.9 165.5,611.9 164.9,611.3 175.3,595.8 175.3,604.4 				"/>
			</g>
			<g>
				<rect x="164.4" y="523.1" width="1.1" height="29.8"/>
			</g>
			<g>
				<rect x="158.6" y="540.3" width="13.2" height="1.1"/>
			</g>
			<g>
				<path d="M175.8,563.8h-21.2v-6.3h20.6v6.3H175.8z M156.4,562.6h18.3v-4h-18.3V562.6z"/>
			</g>
			<g>
				<path d="M175.3,599.9l-20-29.2v-9.2l20,29.2V599.9z M156.4,565.5v4.6l17.8,25.8v-4.6L156.4,565.5z"/>
			</g>
			<g>
				<path d="M175.3,634.2l-20-29.2v-9.2l20,29.2V634.2z M156.4,599.9v4.6l17.8,25.8v-4.6L156.4,599.9z"/>
			</g>
			<g>
				<path d="M175.3,667.4l-20-29.2v-9.2l20,29.2V667.4z M156.4,633.6v4.6l17.8,25.2v-4.6L156.4,633.6z"/>
			</g>
			<g>
				<path d="M175.8,671.4h-21.2v-6.3h20.6v6.3H175.8z M156.4,670.3h18.3v-4h-18.3V670.3z"/>
			</g>
			<g>
				<path d="M68.7,701.2h-5.2c-0.6,0-0.6,0-0.6-0.6v-4h-4c-0.6,0-0.6-0.6-0.6-0.6v-5.2c0-0.6,0-0.6,0.6-0.6h4v-4
					c0-0.6,0.6-0.6,0.6-0.6h5.2c0.6,0,0.6,0.6,0.6,0.6v4h4c0.6,0,0.6,0,0.6,0.6v5.2c0,0.6,0,0.6-0.6,0.6h-4v4
					C69.9,701.2,69.3,701.2,68.7,701.2 M64.1,700.1h4v-4c0-0.6,0-0.6,0.6-0.6h4v-4h-4c-0.6,0-0.6-0.6-0.6-0.6v-4h-4v4
					c0,0.6,0,0.6-0.6,0.6h-4v4h4c0.6,0,0.6,0.6,0.6,0.6V700.1z"/>
			</g>
			<g>
				<path d="M100.2,701.2h-5.2c-0.6,0-0.6,0-0.6-0.6v-4h-4c-0.6,0-0.6-0.6-0.6-0.6v-5.2c0-0.6,0-0.6,0.6-0.6h4v-4
					c0-0.6,0.6-0.6,0.6-0.6h5.2c0.6,0,0.6,0.6,0.6,0.6v4h4c0.6,0,0.6,0,0.6,0.6v5.2c0,0.6,0,0.6-0.6,0.6h-4v4
					C101.4,701.2,100.8,701.2,100.2,701.2 M95.6,700.1h4v-4c0-0.6,0-0.6,0.6-0.6h4v-4h-4c-0.6,0-0.6-0.6-0.6-0.6v-4h-4v4
					c0,0.6,0,0.6-0.6,0.6h-4v4h4c0.6,0,0.6,0.6,0.6,0.6V700.1z"/>
			</g>
			<g>
				<path d="M53.3,655.4h-5.7c-0.6,0-0.6,0-0.6-0.6v-4h-4c-0.6,0-0.6,0-0.6-0.6v-5.2c0-0.6,0-0.6,0.6-0.6h4v-4
					c0-0.6,0.6-0.6,0.6-0.6h5.2c0.6,0,0.6,0.6,0.6,0.6v4h4c0.6,0,0.6,0,0.6,0.6v5.2c0,0.6,0,0.6-0.6,0.6h-3.4v4
					C53.8,655.4,53.3,655.4,53.3,655.4 M48.7,654.3h4v-4c0-0.6,0.6-0.6,0.6-0.6h4v-4h-4c-0.6,0-0.6,0-0.6-0.6v-4h-4v4
					c0,0.6,0,0.6-0.6,0.6h-4.6v4h4c0.6,0,0.6,0,0.6,0.6v4H48.7z"/>
			</g>
			<g>
				<path d="M53.3,686.3h-5.7c-0.6,0-0.6,0-0.6-0.6v-4h-4c-0.6,0-0.6,0-0.6-0.6V676c0-0.6,0-0.6,0.6-0.6h4v-4c0-0.6,0.6-0.6,0.6-0.6
					h5.2c0.6,0,0.6,0,0.6,0.6v4h4c0.6,0,0.6,0.6,0.6,0.6v5.2c0,0.6,0,0.6-0.6,0.6h-3.4v4L53.3,686.3 M48.7,684.6h4v-4
					c0-0.6,0.6-0.6,0.6-0.6h4v-4h-4c-0.6,0-0.6,0-0.6-0.6v-4h-4v4c0,0.6,0,0.6-0.6,0.6h-4.6v4h4c0.6,0,0.6,0.6,0.6,0.6v4H48.7z"/>
			</g>
			<g>
				<path d="M132.3,701.2h-5.2c-0.6,0-0.6,0-0.6-0.6v-4h-4c-0.6,0-0.6-0.6-0.6-0.6v-5.2c0-0.6,0-0.6,0.6-0.6h3.4v-4
					c0-0.6,0.6-0.6,0.6-0.6h5.2c0.6,0,0.6,0.6,0.6,0.6v4h4c0.6,0,0.6,0,0.6,0.6v5.2c0,0.6,0,0.6-0.6,0.6h-4v4
					C132.9,701.2,132.3,701.2,132.3,701.2 M127.1,700.1h4v-4c0-0.6,0-0.6,0.6-0.6h4v-4h-4c-0.6,0-0.6-0.6-0.6-0.6v-4h-4v4
					c0,0.6,0,0.6-0.6,0.6h-4v4h4c0.6,0,0.6,0.6,0.6,0.6V700.1z"/>
			</g>
			<g>
				<path d="M147.8,655.4h-5.2c-0.6,0-0.6,0-0.6-0.6v-4h-4.6c-0.6,0-0.6,0-0.6-0.6v-5.2c0-0.6,0.6-0.6,0.6-0.6h4v-4
					c0-0.6,0.6-0.6,0.6-0.6h5.2c0.6,0,0.6,0.6,0.6,0.6v4h4c0.6,0,0.6,0,0.6,0.6v5.2c0,0.6-0.6,0.6-0.6,0.6h-4v4
					C148.3,655.4,148.3,655.4,147.8,655.4 M143.2,654.3h4v-4c0-0.6,0.6-0.6,0.6-0.6h4v-4h-4c-0.6,0-0.6,0-0.6-0.6v-4h-4v4
					c0,0.6,0,0.6-0.6,0.6h-4v4h4c0.6,0,0.6,0,0.6,0.6V654.3z"/>
			</g>
			<g>
				<path d="M147.8,686.3h-5.2c-0.6,0-0.6,0-0.6-0.6v-4h-4.6c-0.6,0-0.6,0-0.6-0.6V676c0-0.6,0.6-0.6,0.6-0.6h4v-4
					c0-0.6,0.6-0.6,0.6-0.6h5.2c0.6,0,0.6,0,0.6,0.6v4h4c0.6,0,0.6,0.6,0.6,0.6v5.2c0,0.6-0.6,0.6-0.6,0.6h-4v4
					C148.3,685.8,148.3,686.3,147.8,686.3 M143.2,684.6h4v-4c0-0.6,0.6-0.6,0.6-0.6h4v-4h-4c-0.6,0-0.6,0-0.6-0.6v-4h-4v4
					c0,0.6,0,0.6-0.6,0.6h-4v4h4c0.6,0,0.6,0.6,0.6,0.6V684.6z"/>
			</g>
			<g>
				<path d="M95.6,517.4c0,0,1.1,0,2.3,0c1.1,0,2.9-0.6,2.9-0.6l-0.6,8.6c0,0-1.1-0.6-1.7-0.6c-1.1,0-1.7,0.6-1.7,0.6L95.6,517.4z"
					/>
			</g>
			<g>
				<path d="M53.8,527.7c0,0-0.6-0.6-1.7-0.6c-0.6,0-1.7,0-1.7,0s-1.7-5.7-0.6-9.2c1.1-2.3,5.7-2.9,9.7-2.9c5.2,0,12,0,12,0
					s-1.1,0.6-1.1,1.7c0,0.6,0,1.1,0,1.1s-5.7-0.6-8.6,0c-2.3,0-6.9,0.6-8,1.7c-0.6,0.6-1.1,1.7-0.6,3.4
					C53.3,524.8,53.8,527.7,53.8,527.7"/>
			</g>
			<g>
				<path d="M76.2,526.5c0,0-0.6,0-1.1,0c-1.7,0-2.9,0.6-2.9,0.6s-2.3-8-0.6-10.9c0.6-1.7,4.6-2.3,9.7-2.3s13.2,2.9,13.2,2.9v1.1
					c0,0-6.3-1.7-10.9-1.7c-4.6,0-6.3,0-6.9,1.1c-1.1,1.1-1.1,3.4-0.6,4.6C76.2,523.7,76.2,526.5,76.2,526.5"/>
			</g>
			<g>
				<path d="M142,527.7c0,0,0.6-0.6,1.7-0.6c0.6,0,1.7,0,1.7,0s1.7-6.3,0.6-9.2c-1.1-2.3-5.7-2.9-9.7-2.9c-5.2,0-12,0-12,0
					s0.6,0.6,0.6,1.1s0,1.1,0,1.1s5.7-0.6,8.6,0c2.9,0.6,6.9,0.6,8,1.7c1.1,1.1,1.1,2.3,1.1,4S142,527.7,142,527.7"/>
			</g>
			<g>
				<path d="M119.7,526.5c0,0,0.6,0,1.1,0c1.7,0,2.9,0.6,2.9,0.6s1.7-7.4,0.6-10.9c-0.6-1.7-4.6-2.3-9.7-2.3
					c-5.2,0-12.6,2.9-12.6,2.9v1.1c0,0,6.3-1.7,10.9-1.7s6.3,0,6.9,1.1c0.6,1.1,0.6,3.4,0.6,4.6
					C120.3,524.3,119.7,526.5,119.7,526.5"/>
			</g>
			<g>
				<path d="M85.9,552.9h55.6l5.2-23.5c-0.6-0.6-2.9-1.1-2.9-1.1s-2.3,0-2.9,1.7c-1.1,1.7,1.7,4,1.7,4l-1.1,1.7c0,0-1.7-2.9-4-2.9
					c-0.6,0-2.3,0.6-2.3,3.4s0.6,3.4,2.3,3.4s4.6-2.9,4.6-2.9l0.6,1.7l-2.9,5.7c0,0-2.9,1.1-7.4,1.1c-6.9,0-7.4-1.1-7.4-1.1
					l-2.9-5.7l0.6-1.7c0,0,2.9,2.9,4.6,2.9s2.3-1.1,2.3-3.4c0-2.9-1.7-4-2.9-3.4c-1.7,0.6-3.4,2.9-3.4,2.9l-1.7-1.7
					c0,0,2.9-2.3,2.3-4c0-2.3-3.4-2.3-3.4-2.3s-2.9,0-3.4,2.3c-0.6,1.7,2.3,4,2.3,4l-1.1,1.7c0,0-1.7-2.9-4-2.9c-0.6,0-2.3,0-2.3,4
					c0,2.3,0.6,3.4,2.3,3.4s4.6-2.9,4.6-2.9l0.6,1.7l-2.9,5.7c0,0-0.6,1.1-6.9,1.1l0,0c-6.3,0-6.9-1.1-6.9-1.1l-3.4-6.3l1.1-1.7
					c0,0,2.3,2.9,4,3.4c1.7,0,2.9-1.1,2.9-3.4c0-2.9-1.7-4-2.9-4c-1.7,0.6-4,2.9-4,2.9l-1.1-1.7c0,0,2.9-2.9,2.3-5.2
					c-0.6-2.3-3.4-2.3-3.4-2.3s-2.9,0-3.4,2.3c-0.6,2.3,2.3,5.2,2.3,5.2l-1.1,1.7c0,0-2.9-2.9-4.6-2.9c-1.1,0-2.9,1.1-2.3,3.4
					c0,2.9,1.1,4,2.9,4c1.7,0,4-3.4,4-3.4l1.1,1.7l-3.4,6.3c0,0,0,1.1-7.4,1.1c-6.3,0-6.9-1.1-6.9-1.1l-2.9-5.7l0.6-1.7
					c0,0,2.9,2.9,4.6,2.9c1.7,0,2.3-1.1,2.3-3.4c0-3.4-1.7-4-2.3-4c-1.7,0.6-4,2.9-4,2.9l-1.1-1.7c0,0,2.9-2.3,2.3-4.6
					s-3.4-2.3-3.4-2.3s-3.4,0-3.4,2.9c0,1.7,2.3,4,2.3,4l-1.1,1.7c0,0-1.7-2.9-3.4-2.9c-1.1,0-2.3,0.6-2.3,3.4c0,2.3,0.6,4,2.3,3.4
					c1.7,0,4.6-2.9,4.6-2.9l0.6,1.7l-2.9,5.7c0,0-0.6,1.1-7.4,1.1c-4.6,0-7.4-1.1-7.4-1.1l-2.9-5.7l0.6-1.7c0,0,2.9,2.9,4.6,2.9
					s2.3-1.1,2.3-3.4c0-2.9-1.7-4-2.3-3.4c-2.9,0.6-4.6,2.9-4.6,2.9l-1.1-1.7c0,0,2.9-2.3,1.7-4.6c-1.1-1.1-3.4-1.1-3.4-1.1
					s-1.7,0-2.9,0.6l5.2,23.5h55.6"/>
			</g>
			<g>
				<path d="M97.9,515.7c4.6,0,8-3.4,8-8s-3.4-8-8-8s-8,3.4-8,8S93.4,515.7,97.9,515.7"/>
			</g>
			<g>
				<path d="M97.9,516.2c-5.2,0-8.6-4-8.6-8.6c0-5.2,4-8.6,8.6-8.6c5.2,0,8.6,4,8.6,8.6S103.1,516.2,97.9,516.2 M97.9,500.2
					c-4,0-7.4,3.4-7.4,7.4s3.4,7.4,7.4,7.4s7.4-3.4,7.4-7.4S101.9,500.2,97.9,500.2"/>
			</g>
			<g>
				<path d="M52.7,635.4h-5.2c-0.6,0-0.6,0-0.6-0.6v-5.2c0-0.6,0.6-0.6,0.6-0.6h4c0,0,0.6,0,0.6,0.6c0.6,1.1,1.1,2.3,1.1,2.9v2.3
					C53.8,635.4,53.3,635.4,52.7,635.4 M48.1,634.2h4v-1.7c0-0.6-0.6-1.1-1.1-2.3h-2.9V634.2z"/>
			</g>
			<g>
				<path d="M147.8,635.4h-5.2c-0.6,0-0.6,0-0.6-0.6v-1.7c0.6-1.7,1.1-2.9,1.7-4l0.6-0.6h4c0.6,0,0.6,0.6,0.6,0.6v5.2
					C148.3,635.4,148.3,635.4,147.8,635.4 M143.2,634.2h4v-4h-2.9c-0.6,1.1-1.1,2.3-1.7,3.4L143.2,634.2z"/>
			</g>
			<g>
				<path d="M68.7,670.9h-5.2c-0.6,0-0.6,0-0.6-0.6v-4.6h-4c-0.6,0-0.6,0-0.6-0.6V660c0-0.6,0-0.6,0.6-0.6h4v-4
					c0-0.6,0.6-0.6,0.6-0.6H67h0.6c0.6,0.6,1.1,1.7,1.7,2.3c0,0,0,0,0,0.6v1.7h1.1H71c1.1,1.1,1.7,2.3,2.9,3.4c0,0,0,0,0,0.6v2.3
					c0,0.6,0,0.6-0.6,0.6h-4v4C69.9,670.3,69.3,670.9,68.7,670.9 M64.1,669.7h4v-4c0-0.6,0-0.6,0.6-0.6h4V664
					c-0.6-1.1-1.7-1.7-2.3-2.9h-1.7c-0.6,0-0.6-0.6-0.6-0.6v-2.3c-0.6-0.6-1.1-1.1-1.7-2.3h-2.3v4c0,0.6,0,0.6-0.6,0.6h-4v4h4
					c0.6,0,0.6,0,0.6,0.6V669.7z"/>
			</g>
			<g>
				<path d="M84.8,686.3h-5.2c-0.6,0-0.6,0-0.6-0.6v-4h-4.6c-0.6,0-0.6,0-0.6-0.6V676c0-0.6,0-0.6,0.6-0.6h4v-4
					c0-0.6,0.6-0.6,0.6-0.6h1.7h0.6c1.1,1.1,2.9,2.3,4,3.4v0.6v0.6h0.6h0.6c1.1,1.1,2.3,1.7,3.4,2.9v0.6v2.9c0,0.6,0,0.6-0.6,0.6h-4
					v4C85.3,685.8,85.3,686.3,84.8,686.3 M80.2,684.6h4v-4c0-0.6,0-0.6,0.6-0.6h4v-1.7c-1.1-0.6-1.7-1.7-2.9-2.3h-1.1
					c-0.6,0-0.6,0-0.6-0.6v-1.1c-1.1-1.1-2.3-2.3-3.4-3.4h-0.6v4c0,0.6,0,0.6-0.6,0.6h-4v4h4c0.6,0,0.6,0.6,0.6,0.6V684.6z"/>
			</g>
			<g>
				<path d="M49.8,625.1h-1.7c-0.6,0-0.6,0-0.6-0.6v-4H43c-0.6,0-0.6,0-0.6-0.6v-5.2c0-0.6,0.6-0.6,0.6-0.6h4c0.6,0,0.6,0,0.6,0.6
					c0.6,4,1.7,7.4,2.9,10.3C50.4,624.5,50.4,625.1,49.8,625.1L49.8,625.1 M43.5,619.3H47c-0.6-1.1-0.6-2.9-1.1-4h-2.3V619.3z"/>
			</g>
			<g>
				<path d="M116.3,686.3h-5.2c-0.6,0-0.6,0-0.6-0.6v-4h-4c-0.6,0-0.6,0-0.6-0.6v-2.9v-0.6c1.1-0.6,2.3-1.7,3.4-2.9c0,0,0,0,0.6,0
					h1.1v-0.6v-0.6c1.1-1.1,2.3-2.3,3.4-3.4c0,0,0,0,0.6,0h1.7c0.6,0,0.6,0,0.6,0.6v4h4c0.6,0,0.6,0.6,0.6,0.6v5.2
					c0,0.6-0.6,0.6-0.6,0.6h-4v4C116.8,685.8,116.8,686.3,116.3,686.3 M111.7,684.6h4v-4c0-0.6,0.6-0.6,0.6-0.6h4v-4h-4
					c-0.6,0-0.6,0-0.6-0.6v-4h-0.6c-1.1,1.1-2.3,2.3-3.4,2.9v1.1c0,0.6,0,0.6-0.6,0.6H110c-1.1,0.6-1.7,1.7-2.9,2.3v1.7h4
					c0.6,0,0.6,0.6,0.6,0.6L111.7,684.6L111.7,684.6z"/>
			</g>
			<g>
				<path d="M132.3,670.9h-5.2c-0.6,0-0.6,0-0.6-0.6v-4.6h-4c-0.6,0-0.6,0-0.6-0.6v-2.3v-0.6c1.1-1.1,1.7-1.7,2.9-2.9h0.6h0.6v-1.7
					v-0.6c0.6-0.6,1.1-1.7,1.7-2.3h0.6h3.4c0.6,0,0.6,0,0.6,0.6v4h4c0.6,0,0.6,0.6,0.6,0.6v5.2c0,0.6,0,0.6-0.6,0.6h-4v4
					C132.9,670.3,132.3,670.9,132.3,670.9 M127.1,669.7h4v-4c0-0.6,0-0.6,0.6-0.6h4v-4h-4c-0.6,0-0.6-0.6-0.6-0.6v-4h-2.3
					c-0.6,0.6-1.1,1.1-1.7,1.7v1.7c0,0.6,0,0.6-0.6,0.6h-1.7c-0.6,1.1-1.7,1.7-2.3,2.9v1.1h4c0.6,0,0.6,0,0.6,0.6L127.1,669.7
					L127.1,669.7z"/>
			</g>
			<g>
				<path d="M147.8,625.6H146h-0.6v-0.6c1.1-2.9,1.7-6.3,2.9-10.3c0-0.6,0.6-0.6,0.6-0.6h4c0.6,0,0.6,0.6,0.6,0.6v5.2
					c0,0.6,0,0.6-0.6,0.6h-4v4C148.3,625.1,148.3,625.6,147.8,625.6 M148.3,619.3h4v-4h-2.9C148.9,616.5,148.3,618.2,148.3,619.3"/>
			</g>
			<g>
				<path d="M97.9,684.6L97.9,684.6c-0.6-0.6-32.1-20.6-47-56.1c-10.3-21.8-10.9-75-10.9-75.6v-0.6h115.1v0.6
					c0,0.6-0.6,53.3-10.3,76.2C130,664.6,98.5,684.6,97.9,684.6L97.9,684.6z M41.2,553.5c0,6.3,1.1,53.8,10.3,75
					c14.3,33.2,42.4,52.7,45.8,55c3.4-2.3,32.1-21.8,45.8-55c9.2-21.2,10.3-68.7,10.3-75L41.2,553.5L41.2,553.5z"/>
			</g>
			<g>
				<path d="M97.4,569.5l-4-0.6c-1.1,0-2.3-0.6-2.3-0.6c-0.6,0-0.6,0.6-0.6,0.6s1.1,0.6,2.3,0.6l5.2,0.6L97.4,569.5z"/>
			</g>
			<g>
				<path d="M49.3,557.5c0,0-0.6,5.7,0.6,9.7c1.1,4,4,9.7,4,9.7s1.7-1.7,4.6-4.6c2.9-2.9,6.3-2.3,6.3-2.3h5.2v-5.2h-5.2
					c0,0-5.2,0-8-1.7C53.8,560.9,49.3,557.5,49.3,557.5"/>
			</g>
			<g>
				<path d="M100.2,497.9v-6.3h4.6v-4h-4.6v-5.2h-4.6v5.2h-4.6v4h4.6v6.3c0.6,0,1.7-0.6,2.3-0.6C98.5,497.9,99.7,497.9,100.2,497.9"
					/>
			</g>
			<g>
				<path d="M70.4,523.1c0,0-3.4,0.6-8,2.3c-4,1.7-6.9,4-6.9,4s0,1.1,0,1.7c0,0,3.4-2.9,7.4-4.6s7.4-2.3,7.4-2.3L70.4,523.1z"/>
			</g>
			<g>
				<path d="M76.7,522.5v1.1c0,0,9.2-1.1,17.8-1.1v-1.1C89.3,521.4,80.2,522,76.7,522.5"/>
			</g>
			<g>
				<path d="M125.4,523.7c0,0,3.4,0.6,8,2.3c4,1.7,6.3,3.4,6.3,3.4s-0.6,0.6,0,1.7c0,0-2.9-2.3-6.9-4s-7.4-2.3-7.4-2.3V523.7z"/>
			</g>
			<g>
				<path d="M119.1,522.5v1.1c0,0-9.2-1.1-17.8-1.1v-1.1C106,521.4,115.7,522,119.1,522.5"/>
			</g>
			<g>
				<path d="M104.2,566.1l0.6-0.6l-1.7-0.6v1.1C103.1,566.1,103.7,566.1,104.2,566.1 M143.8,599.3c0,0-2.3,0.6-4,0
					c-0.6,0-2.3-0.6-2.9-0.6c-1.1,0-2.9,0.6-2.9,0.6s1.7-2.9,5.7-6.9c4-3.4,9.7-11.5,8-18.3s-5.2-9.2-10.3-9.2c-5.2,0-8,1.7-9.7,5.7
					c-0.6,1.7,0,2.9-0.6,5.2c0,0-1.1,1.7-2.3,3.4c-1.1,1.1-2.3,5.7-2.3,5.7h0.6l4-4v2.3c0,0-1.7,2.3-4.6,5.7c-1.7,2.3-4,6.9-4.6,8.6
					h1.1c0,0,2.3-2.9,8-7.4c1.7-1.1,5.2-3.4,5.7-5.7c0.6-2.3,0-4.6,0-4.6s1.7,1.1,2.3,3.4c0.6,1.7,0,3.4,0,3.4s1.7-4.6,1.7-7.4
					c-0.6-4-1.7-4.6-3.4-5.2c-0.6,0-2.3,0-2.3,0s-1.1-4.6,2.9-5.7c2.9-1.1,6.9-1.1,9.2,2.9c2.9,4.6,1.1,9.7-1.1,12.6
					c-2.3,2.9-6.3,6.9-13.7,12c-5.7,4-9.7,8.6-9.2,13.7c1.1,6.9,6.3,14.9,9.2,18.9c2.9,4,4,9.2,1.7,12.6c-2.3,3.4-8,4.6-11.5,2.3
					c-2.9-2.3-6.3-8-9.2-15.5c-2.3-6.3-5.2-9.7-5.2-9.7l0.6-21.8l1.7,0.6c0,0,0-2.3,0.6-4c0.6-2.3,3.4-5.7,5.2-10.3
					c1.7-4,1.7-10.3,1.7-10.3s1.1-1.1,1.7-2.3v-2.3l-1.7-1.1l0,0l3.4-5.2c-0.6,0-2.3,0.6-2.3,0.6s-1.7-1.7-2.3,0
					c0.6,0,1.7,0.6,1.7,0.6l-0.6,1.1l-3.4-1.1l-0.6-1.1c0,0,1.7,1.1,2.3-0.6s-1.1-1.1-1.1-1.1s0.6-1.1-1.1-1.7
					c-1.7-0.6-1.7,1.1-1.7,1.1s-1.7-1.1-1.7,0.6c-0.6,1.7,1.1,1.7,1.1,1.7l-1.1,1.1l-3.4-1.7l-0.6-1.1c0,0,1.7,0,1.7-1.7
					c-0.6-1.7-2.3-0.6-2.3-0.6s-0.6-1.1-1.7-0.6l0.6,5.7l12,2.9l-1.1,0.6l-10.9-2.3l-4,2.9l0.6,1.7l1.7,2.3l-1.7,2.3l5.7,0.6
					l-0.6,1.7c0,0-2.9,0-6.9,1.1c-1.1,0.6-8.6,5.2-10.3,7.4c-1.1,1.1-1.7,2.9-1.7,2.9l-8.6-4.6l-0.6-1.1l-1.7,0.6l-2.3-1.7
					c0,0,1.7-2.3,2.9-4.6c0.6-1.7-0.6-4-0.6-4l-0.6-0.6v2.9l-2.3,0.6l-1.1,3.4l-0.6-0.6v-16h-2.9v14.3c0,0,0-0.6-2.3-0.6
					c-2.3,0-3.4,0.6-3.4,0.6l-0.6,0.6l3.4,0.6l0.6,2.3l2.9,0.6v1.7c0,0-1.1-0.6-2.9,1.1s-2.3,4-2.3,4v1.1c0.6-0.6,1.1-2.3,1.7-1.7
					c1.1,0,1.7,0.6,2.3,0.6l1.1-1.1v22.3c0,0-1.7-0.6-2.9,0c-0.6,0-1.7,0.6-1.7,0.6l-0.6,1.1c0,0,2.3-0.6,2.9,0
					c0.6,0.6,0.6,1.1,0.6,1.7s1.1,0.6,1.1,1.1v3.4l-2.3,3.4v1.7l2.3-1.7v8h2.9v-7.4h1.1l3.4-4c0,0,1.7,0,2.3,1.1
					c0.6,0.6,0,1.7,0.6,2.3c0.6,0,0.6,0.6,0.6,0.6L94.5,597l-7.4,9.2l1.7,4l3.4,4l1.1,7.4l-9.2,4.6c0,0-0.6,2.3-1.7,5.7
					c-0.6,3.4-1.1,6.3-1.1,6.3l0.6,2.9L71,639.9l-0.6-2.9c0,0,1.1-1.7,2.3-4c1.1-2.3,0-5.2,0-5.2l-0.6-0.6v3.4l-1.7,0.6l-0.6,3.4
					h-1.1c0,0-0.6-2.3-2.9-3.4c-2.3-1.7-4.6-0.6-4.6-0.6l-0.6,0.6l3.4,1.1l-1.1,0.6l4,1.7l-0.6,0.6l-3.4,0.6l-0.6,1.1H59l0.6,0.6
					c0,0,1.7,1.1,4,1.1s4-1.1,4-1.1l1.1,3.4l-1.7,1.7l0.6,0.6h1.7l12.6,2.9l2.3,1.7l4-1.7c0,0,0-1.7,0.6-2.9
					c0.6-0.6,1.7-2.3,2.3-2.9c0,0-1.7-3.4-2.3-4c-1.1-1.7-1.1-6.9-0.6-7.4c0.6-2.3,7.4-8,7.4-8l1.7-4l0.6,0.6l-1.7,4
					c-4.6,3.4-6.9,6.9-7.4,8c0,0.6,0,5.2,0.6,6.9c0.6,0.6,1.7,3.4,1.7,3.4s1.7,2.3,4.6,4.6c2.3,2.3,4,4,4.6,6.3
					c0.6,3.4,1.1,8.6,1.1,12.6c0,1.7,0,2.9,0,2.9l-2.9,0.6c0,0-2.3-4-2.9-4c-2.3-1.1-4-1.7-4-1.7l-1.1,0.6l2.3,1.7v2.9l4,2.3
					c0,0-2.3,0.6-2.9,0.6c-2.3,0-4,3.4-4,3.4v0.6l2.3-1.1l2.3,1.1l3.4-2.9l0.6,0.6c0,0-0.6,2.3,0,4s1.7,4,1.7,4h1.1l-1.1-3.4
					l2.3-1.7l-1.1-3.4l2.9-2.3l2.9,2.3l0.6-0.6c-1.7-4-0.6-15.5-0.6-15.5s1.1-1.1,1.1-2.3s0-2.9,0-4c-0.6-0.6-1.1-2.3-1.1-2.3
					s-1.1-5.2-0.6-10.9c0-1.1,0-2.3,0-3.4c0.6,1.1,3.4,6.3,6.3,9.2c4.6,5.7,9.7,6.3,13.2,5.7c11.5-3.4,8.6-14.9,8.6-14.9
					c-4.6-11.5-4-13.2-4-13.2l8-3.4v-0.6h-2.9l-3.4-0.6H130v-1.1l11.5-5.2v-0.6h-2.3l-4.6-1.1l-4,0.6l0.6-1.7L143.8,599.3z
					 M114,567.2l1.1,0.6v1.1l-1.1,1.1l-0.6-1.7l-1.1-1.1H114z M67.6,615.3v-3.4c0,0,2.3,0,2.3,1.1C69.9,614.7,67.6,615.3,67.6,615.3
					 M75,611.3l-2.3-1.7v-5.2l-2.9-4.6h-1.1l1.1,2.9l-1.1,2.9l1.1,2.9l-1.1,1.1l-1.7-2.3v-25.2l2.3,1.1l-0.6,2.3l1.1,1.1l1.1-0.6
					l10.9,8l-0.6,2.3l3.4-0.6L75,611.3z M89.9,585c-0.6,0.6-4,5.7-4,5.7l-0.6-0.6c0.6-1.1,3.4-5.7,4-6.3c1.1-0.6,4.6-1.1,6.9-1.1
					v1.1C96.2,583.8,91.1,584.4,89.9,585 M99.7,565.5l2.3-1.7l6.3,1.1v1.1c-0.6-0.6-3.4-1.1-3.4-1.1c-0.6,1.1-0.6,1.1-1.1,1.7
					c0,0-1.1,0-1.7,0c-0.6-0.6-0.6-1.7-0.6-1.7C100.8,565.5,100.2,566.1,99.7,565.5L99.7,565.5z M100.8,570.6l-0.6-1.7l4.6,0.6
					l0.6,1.7L100.8,570.6z"/>
			</g>
			<g>
				<rect x="234.2" y="551.7" width="1.7" height="155.8"/>
			</g>
		</g>
	</g>
	<g id="Layer_1_copy" display="inline">
		<g>
			<g>
				<path fill="#FFFFFF" d="M269.2,552.3h40.1c22.9,0,34.9,4.6,34.9,33.2c0,28.6-12,33.2-34.9,33.2h-16v23.5h-24.1V552.3z
					 M309.3,599.9c5.2,0,10.9-0.6,10.9-14.3c0-13.7-6.3-14.3-11.5-14.3h-16v28.6H309.3z"/>
			</g>
			<g>
				<path fill="#FFFFFF" d="M351.1,597c0-39.5,17.2-46.4,44.1-46.4s44.1,6.9,44.1,45.8c0,39.5-17.2,46.4-44.1,46.4
					C368.3,643.4,351.1,636.5,351.1,597 M414.6,600.4v-6.9c0-17.2-4-22.3-19.5-22.3c-14.9,0-18.9,5.2-18.9,22.3v6.9
					c0,17.2,4.6,23.5,19.5,23.5C410.6,623.3,414.6,617.6,414.6,600.4"/>
			</g>
			<g>
				<polygon fill="#FFFFFF" points="450.7,552.3 474.2,552.3 474.2,621.6 514.9,621.6 514.9,641.7 450.7,641.7 				"/>
			</g>
			<g>
				<rect x="524.6" y="552.3" fill="#FFFFFF" width="24.1" height="89.9"/>
			</g>
			<g>
				<polygon fill="#FFFFFF" points="587,572.9 558.4,572.9 558.4,552.3 639.7,552.3 639.7,572.9 611.1,572.9 611.1,641.7 587,641.7
									"/>
			</g>
			<g>
				<rect x="649.5" y="552.3" fill="#FFFFFF" width="24.1" height="89.9"/>
			</g>
			<g>
				<polygon fill="#FFFFFF" points="688.4,552.3 752.5,552.3 752.5,572.9 712.5,572.9 712.5,586.7 744.5,586.7 744.5,607.3
					712.5,607.3 712.5,621.6 752.5,621.6 752.5,641.7 688.4,641.7 				"/>
			</g>
			<g>
				<polygon fill="#FFFFFF" points="788.1,572.9 759.4,572.9 759.4,552.3 840.7,552.3 840.7,572.9 812.1,572.9 812.1,641.7
					788.1,641.7 				"/>
			</g>
			<g>
				<polygon fill="#FFFFFF" points="27.5,553.5 22.9,540.9 30.4,519.7 37.8,540.9 33.8,553.5 32.1,552.9 36.1,540.9 30.4,525.4
					25.2,540.9 29.2,552.9 				"/>
			</g>
			<g>
				<line fill="none" x1="20.6" y1="552.9" x2="20.6" y2="552.9"/>
			</g>
			<g>
				<path fill="#FFFFFF" d="M155.8,708.1H39.5v-6.9c0-4-2.9-7.4-6.9-7.4h-5.7v-16.6H20V597c-11.5-0.6-20-10.9-20-22.3
					c0-12,9.2-22.3,20.6-22.3h19.5v1.7H20.6c-10.3,0-18.3,9.7-18.3,20.6c0,10.9,8.6,20,18.9,20.6h1.1v1.1V676h7.4v16h3.4
					c5.2,0.6,8.6,4.6,8.6,9.7v4h112.3v-5.2c0-4,2.9-9.7,9.2-9.7h3.4v-16h7.4v-80.2h1.1c10.9,0,18.9-9.7,18.9-20.6
					c0-10.9-8.6-20.6-18.9-20.6h-20v-1.7h20c11.5,0,20.6,10.3,20.6,22.3c0,12-8.6,21.8-20,22.3v80.2h-7.4v16h-5.2
					c-5.2,0-7.4,4.6-7.4,7.4L155.8,708.1L155.8,708.1z"/>
			</g>
			<g>
				<polygon fill="#FFFFFF" points="162.1,553.5 157.5,540.9 165.5,519.7 173,540.9 168.4,553.5 166.7,552.9 170.7,540.9
					165.5,525.4 159.8,540.9 163.8,552.9 				"/>
			</g>
			<g>
				<path fill="#FFFFFF" d="M174.7,597v-1.1h0.6c3.4-0.6,6.3-3.4,6.3-7.4s-2.9-6.9-6.3-7.4v-1.1c4,0.6,7.4,4,7.4,8.6
					c0,2.9-1.1,5.7-3.4,6.9c8.6-2.3,14.9-10.3,14.9-20s-6.3-17.8-14.9-20c2.3,1.7,3.4,4,3.4,6.9c0,4.6-3.4,8.6-7.4,8.6v-1.1
					c3.4,0,6.3-3.4,6.3-7.4s-2.9-6.9-6.3-7.4h-0.6v-1.1h0.6c11.5,0,20,10.3,20,22.3c0,12-9.2,21.8-20,22.3L174.7,597z"/>
			</g>
			<g>
				<path fill="#FFFFFF" d="M20.6,597c-11.5,0-20-10.3-20-22.3c0-12,9.2-21.8,20-22.3h0.6v1.1l-0.6,0.6c-3.4,0.6-6.3,3.4-6.3,7.4
					c0,4,2.9,6.9,6.3,7.4v1.1c-4-0.6-7.4-4-7.4-8.6c0-2.9,1.1-5.2,3.4-6.9c-8.6,2.3-14.9,10.3-14.9,20s6.3,18.3,14.9,20
					c-2.3-1.7-3.4-4-3.4-6.9c0-4.6,3.4-8.6,7.4-8.6v1.1c-3.4,0-6.3,3.4-6.3,7.4s2.9,6.9,6.3,7.4h0.6v1.1L20.6,597z"/>
			</g>
			<g>
				<path fill="#FFFFFF" d="M68.7,681.8h-5.2c-0.6,0-0.6,0-0.6-0.6V676c0-0.6,0-0.6,0.6-0.6h5.2c0.6,0,0.6,0,0.6,0.6v5.2
					C69.3,681.2,69.3,681.8,68.7,681.8 M64.1,680h4v-4h-4V680z"/>
			</g>
			<g>
				<path fill="#FFFFFF" d="M84.8,696.6h-5.2c-0.6,0-0.6-0.6-0.6-0.6v-5.2c0-0.6,0-0.6,0.6-0.6h5.2c0.6,0,0.6,0,0.6,0.6v5.2
					C85.3,696.6,84.8,696.6,84.8,696.6 M79.6,695.5h4v-4h-4V695.5z"/>
			</g>
			<g>
				<path fill="#FFFFFF" d="M52.7,666.3h-5.2c-0.6,0-0.6,0-0.6-0.6V660c0-0.6,0.6-0.6,0.6-0.6h5.2c0.6,0,0.6,0.6,0.6,0.6v5.7
					C53.8,665.7,53.3,666.3,52.7,666.3 M48.1,665.1h4v-4h-4V665.1z"/>
			</g>
			<g>
				<path fill="#FFFFFF" d="M52.7,696.6h-5.2c-0.6,0-0.6-0.6-0.6-0.6v-5.2c0-0.6,0-0.6,0.6-0.6h5.2c0.6,0,0.6,0,0.6,0.6v5.2
					C53.8,696.6,53.3,696.6,52.7,696.6 M48.1,695.5h4v-4h-4V695.5z"/>
			</g>
			<g>
				<path fill="#FFFFFF" d="M116.3,696.6h-5.2c-0.6,0-0.6-0.6-0.6-0.6v-5.2c0-0.6,0-0.6,0.6-0.6h5.2c0.6,0,0.6,0,0.6,0.6v5.2
					C116.8,696.6,116.3,696.6,116.3,696.6 M111.1,695.5h4v-4h-4V695.5z"/>
			</g>
			<g>
				<path fill="#FFFFFF" d="M131.7,681.8h-5.2c-0.6,0-0.6,0-0.6-0.6V676c0-0.6,0-0.6,0.6-0.6h5.2c0.6,0,0.6,0,0.6,0.6v5.2
					C132.3,681.2,132.3,681.8,131.7,681.8 M127.1,680h4v-4h-4V680z"/>
			</g>
			<g>
				<path fill="#FFFFFF" d="M147.8,666.3h-5.2c-0.6,0-0.6,0-0.6-0.6V660c0-0.6,0.6-0.6,0.6-0.6h5.2c0.6,0,0.6,0.6,0.6,0.6v5.7
					C148.3,665.7,148.3,666.3,147.8,666.3 M143.2,665.1h4v-4h-4V665.1z"/>
			</g>
			<g>
				<path fill="#FFFFFF" d="M147.8,696.6h-5.2c-0.6,0-0.6-0.6-0.6-0.6v-5.2c0-0.6,0-0.6,0.6-0.6h5.2c0.6,0,0.6,0,0.6,0.6v5.2
					C148.3,696.6,148.3,696.6,147.8,696.6 M143.2,695.5h4v-4h-4V695.5z"/>
			</g>
			<g>
				<path fill="#FFFFFF" d="M174.7,676.6h-19.5c-0.6,0-0.6-0.6-0.6-0.6V552.9c0-0.6,0.6-0.6,0.6-0.6h19.5c0.6,0,0.6,0,0.6,0.6V676
					C175.8,676.6,175.3,676.6,174.7,676.6 M156.4,675.5h18.3v-122h-18.3V675.5z"/>
			</g>
			<g>
				<path fill="#FFFFFF" d="M40.1,676.6H20.6c-0.6,0-0.6-0.6-0.6-0.6V552.9c0-0.6,0.6-0.6,0.6-0.6h19.5c0.6,0,0.6,0,0.6,0.6V676
					C40.7,676.6,40.7,676.6,40.1,676.6 M21.2,675.5h18.3v-122H21.2V675.5z"/>
			</g>
			<g>
				<rect x="29.8" y="523.1" fill="#FFFFFF" width="1.1" height="29.8"/>
			</g>
			<g>
				<rect x="24.1" y="540.3" fill="#FFFFFF" width="13.2" height="1.1"/>
			</g>
			<g>
				<path fill="#FFFFFF" d="M32.6,693.2h-4.6c-0.6,0-0.6,0-0.6-0.6v-16c0-0.6,0-0.6,0.6-0.6h4.6c0.6,0,0.6,0.6,0.6,0.6v16
					C33.2,692.6,33.2,693.2,32.6,693.2 M28.6,691.5h3.4v-14.9h-3.4V691.5z"/>
			</g>
			<g>
				<path fill="#FFFFFF" d="M155.2,707.5H40.7c-0.6,0-0.6,0-0.6-0.6v-5.7c0-4-2.9-7.4-7.4-8v-1.1c4.6,0.6,8.6,4.6,8.6,9.2v5.2h113.4
					v-5.2c0-4.6,3.4-8.6,8.6-9.2v1.1c-4,0.6-7.4,4-7.4,8v5.7C155.8,707.5,155.2,707.5,155.2,707.5"/>
			</g>
			<g>
				<path fill="#FFFFFF" d="M151.8,704.1H43.5c-0.6,0-0.6-0.6-0.6-0.6v-2.3c0-5.7-4.6-10.9-10.3-11.5v-1.1
					c6.3,0.6,11.5,5.7,11.5,12.6v1.7h107.1v-1.7c0-6.3,5.2-12,11.5-12.6v1.1c-5.7,0.6-10.3,5.2-10.3,11.5v2.3
					C152.3,704.1,152.3,704.1,151.8,704.1"/>
			</g>
			<g>
				<path fill="#FFFFFF" d="M40.7,563.8H20v-6.3h20.6V563.8z M21.2,562.6h18.3v-4H21.2V562.6z"/>
			</g>
			<g>
				<polygon fill="#FFFFFF" points="33.2,581 32.1,580.4 39.5,569.5 39.5,565.5 30.9,577.5 29.8,576.9 40.7,561.5 40.7,570.1
					"/>
			</g>
			<g>
				<polygon fill="#FFFFFF" points="20,599.9 20,591.3 27.5,580.4 28.6,581 21.2,591.3 21.8,595.8 29.8,583.2 30.9,584.4 				"/>
			</g>
			<g>
				<polygon fill="#FFFFFF" points="33.2,615.3 32.1,614.2 39.5,603.9 39.5,599.9 30.9,611.9 29.8,611.3 40.7,595.8 40.7,604.4
					"/>
			</g>
			<g>
				<polygon fill="#FFFFFF" points="20,634.2 20,625.1 27.5,614.2 28.6,615.3 21.2,625.6 21.8,629.6 29.8,617.6 30.9,618.8 				"/>
			</g>
			<g>
				<polygon fill="#FFFFFF" points="33.2,649.1 32.1,648 39.5,637.7 39.5,633.6 30.9,645.7 29.8,645.1 40.7,629.6 40.7,638.2
					"/>
			</g>
			<g>
				<polygon fill="#FFFFFF" points="20,667.4 20,658.8 27.5,648 28.6,649.1 21.2,659.4 21.8,663.4 29.8,651.4 30.9,652 				"/>
			</g>
			<g>
				<path fill="#FFFFFF" d="M40.7,671.4H20v-6.3h20.6V671.4z M21.2,670.3h18.3v-4H21.2V670.3z"/>
			</g>
			<g>
				<path fill="#FFFFFF" d="M40.7,667.4l-20-28.6v-9.2l20,28.6V667.4z M21.8,633.6v4.6l17.8,25.2v-4.6L21.8,633.6z"/>
			</g>
			<g>
				<path fill="#FFFFFF" d="M40.7,634.2l-20-29.2v-9.2l20,29.2V634.2z M21.8,599.9v4.6l17.8,25.8v-4.6L21.8,599.9z"/>
			</g>
			<g>
				<path fill="#FFFFFF" d="M40.7,599.9l-20-29.2v-9.2l20,29.2V599.9z M21.8,565.5v4.6l17.8,25.8v-4.6L21.8,565.5z"/>
			</g>
			<g>
				<path fill="#FFFFFF" d="M167.2,693.2h-4.6c-0.6,0-0.6,0-0.6-0.6v-16c0-0.6,0-0.6,0.6-0.6h4.6c0.6,0,0.6,0,0.6,0.6v16
					C168.4,692.6,167.8,693.2,167.2,693.2 M163.8,691.5h3.4v-14.9h-3.4V691.5z"/>
			</g>
			<g>
				<polygon fill="#FFFFFF" points="155.2,599.9 155.2,591.3 162.7,580.4 163.2,581 156.4,591.3 156.4,595.8 164.9,583.2
					165.5,584.4 				"/>
			</g>
			<g>
				<polygon fill="#FFFFFF" points="167.8,581 167.2,580.4 174.1,569.5 174.1,565.5 165.5,577.5 164.9,576.9 175.3,561.5
					175.3,570.1 				"/>
			</g>
			<g>
				<polygon fill="#FFFFFF" points="168.4,649.1 167.2,648 174.1,637.7 174.1,633.6 165.5,645.7 164.9,645.1 175.3,629.6
					175.3,638.2 				"/>
			</g>
			<g>
				<polygon fill="#FFFFFF" points="155.2,667.4 155.2,658.8 162.7,648 163.2,649.1 156.4,659.4 156.4,663.4 164.9,651.4 165.5,652
									"/>
			</g>
			<g>
				<polygon fill="#FFFFFF" points="155.2,634.2 155.2,625.1 162.7,614.2 163.2,615.3 156.4,625.6 156.4,629.6 164.9,617.6
					165.5,618.2 				"/>
			</g>
			<g>
				<polygon fill="#FFFFFF" points="167.8,615.3 167.2,614.2 174.1,603.9 174.1,599.9 165.5,611.9 164.9,611.3 175.3,595.8
					175.3,604.4 				"/>
			</g>
			<g>
				<rect x="164.4" y="523.1" fill="#FFFFFF" width="1.1" height="29.8"/>
			</g>
			<g>
				<rect x="158.6" y="540.3" fill="#FFFFFF" width="13.2" height="1.1"/>
			</g>
			<g>
				<path fill="#FFFFFF" d="M175.8,563.8h-21.2v-6.3h20.6v6.3H175.8z M156.4,562.6h18.3v-4h-18.3V562.6z"/>
			</g>
			<g>
				<path fill="#FFFFFF" d="M175.3,599.9l-20-29.2v-9.2l20,29.2V599.9z M156.4,565.5v4.6l17.8,25.8v-4.6L156.4,565.5z"/>
			</g>
			<g>
				<path fill="#FFFFFF" d="M175.3,634.2l-20-29.2v-9.2l20,29.2V634.2z M156.4,599.9v4.6l17.8,25.8v-4.6L156.4,599.9z"/>
			</g>
			<g>
				<path fill="#FFFFFF" d="M175.3,667.4l-20-29.2v-9.2l20,29.2V667.4z M156.4,633.6v4.6l17.8,25.2v-4.6L156.4,633.6z"/>
			</g>
			<g>
				<path fill="#FFFFFF" d="M175.8,671.4h-21.2v-6.3h20.6v6.3H175.8z M156.4,670.3h18.3v-4h-18.3V670.3z"/>
			</g>
			<g>
				<path fill="#FFFFFF" d="M68.7,701.2h-5.2c-0.6,0-0.6,0-0.6-0.6v-4h-4c-0.6,0-0.6-0.6-0.6-0.6v-5.2c0-0.6,0-0.6,0.6-0.6h4v-4
					c0-0.6,0.6-0.6,0.6-0.6h5.2c0.6,0,0.6,0.6,0.6,0.6v4h4c0.6,0,0.6,0,0.6,0.6v5.2c0,0.6,0,0.6-0.6,0.6h-4v4
					C69.9,701.2,69.3,701.2,68.7,701.2 M64.1,700.1h4v-4c0-0.6,0-0.6,0.6-0.6h4v-4h-4c-0.6,0-0.6-0.6-0.6-0.6v-4h-4v4
					c0,0.6,0,0.6-0.6,0.6h-4v4h4c0.6,0,0.6,0.6,0.6,0.6V700.1z"/>
			</g>
			<g>
				<path fill="#FFFFFF" d="M100.2,701.2h-5.2c-0.6,0-0.6,0-0.6-0.6v-4h-4c-0.6,0-0.6-0.6-0.6-0.6v-5.2c0-0.6,0-0.6,0.6-0.6h4v-4
					c0-0.6,0.6-0.6,0.6-0.6h5.2c0.6,0,0.6,0.6,0.6,0.6v4h4c0.6,0,0.6,0,0.6,0.6v5.2c0,0.6,0,0.6-0.6,0.6h-4v4
					C101.4,701.2,100.8,701.2,100.2,701.2 M95.6,700.1h4v-4c0-0.6,0-0.6,0.6-0.6h4v-4h-4c-0.6,0-0.6-0.6-0.6-0.6v-4h-4v4
					c0,0.6,0,0.6-0.6,0.6h-4v4h4c0.6,0,0.6,0.6,0.6,0.6V700.1z"/>
			</g>
			<g>
				<path fill="#FFFFFF" d="M53.3,655.4h-5.7c-0.6,0-0.6,0-0.6-0.6v-4h-4c-0.6,0-0.6,0-0.6-0.6v-5.2c0-0.6,0-0.6,0.6-0.6h4v-4
					c0-0.6,0.6-0.6,0.6-0.6h5.2c0.6,0,0.6,0.6,0.6,0.6v4h4c0.6,0,0.6,0,0.6,0.6v5.2c0,0.6,0,0.6-0.6,0.6h-3.4v4
					C53.8,655.4,53.3,655.4,53.3,655.4 M48.7,654.3h4v-4c0-0.6,0.6-0.6,0.6-0.6h4v-4h-4c-0.6,0-0.6,0-0.6-0.6v-4h-4v4
					c0,0.6,0,0.6-0.6,0.6h-4.6v4h4c0.6,0,0.6,0,0.6,0.6v4H48.7z"/>
			</g>
			<g>
				<path fill="#FFFFFF" d="M53.3,686.3h-5.7c-0.6,0-0.6,0-0.6-0.6v-4h-4c-0.6,0-0.6,0-0.6-0.6V676c0-0.6,0-0.6,0.6-0.6h4v-4
					c0-0.6,0.6-0.6,0.6-0.6h5.2c0.6,0,0.6,0,0.6,0.6v4h4c0.6,0,0.6,0.6,0.6,0.6v5.2c0,0.6,0,0.6-0.6,0.6h-3.4v4L53.3,686.3
					 M48.7,684.6h4v-4c0-0.6,0.6-0.6,0.6-0.6h4v-4h-4c-0.6,0-0.6,0-0.6-0.6v-4h-4v4c0,0.6,0,0.6-0.6,0.6h-4.6v4h4
					c0.6,0,0.6,0.6,0.6,0.6v4H48.7z"/>
			</g>
			<g>
				<path fill="#FFFFFF" d="M132.3,701.2h-5.2c-0.6,0-0.6,0-0.6-0.6v-4h-4c-0.6,0-0.6-0.6-0.6-0.6v-5.2c0-0.6,0-0.6,0.6-0.6h3.4v-4
					c0-0.6,0.6-0.6,0.6-0.6h5.2c0.6,0,0.6,0.6,0.6,0.6v4h4c0.6,0,0.6,0,0.6,0.6v5.2c0,0.6,0,0.6-0.6,0.6h-4v4
					C132.9,701.2,132.3,701.2,132.3,701.2 M127.1,700.1h4v-4c0-0.6,0-0.6,0.6-0.6h4v-4h-4c-0.6,0-0.6-0.6-0.6-0.6v-4h-4v4
					c0,0.6,0,0.6-0.6,0.6h-4v4h4c0.6,0,0.6,0.6,0.6,0.6V700.1z"/>
			</g>
			<g>
				<path fill="#FFFFFF" d="M147.8,655.4h-5.2c-0.6,0-0.6,0-0.6-0.6v-4h-4.6c-0.6,0-0.6,0-0.6-0.6v-5.2c0-0.6,0.6-0.6,0.6-0.6h4v-4
					c0-0.6,0.6-0.6,0.6-0.6h5.2c0.6,0,0.6,0.6,0.6,0.6v4h4c0.6,0,0.6,0,0.6,0.6v5.2c0,0.6-0.6,0.6-0.6,0.6h-4v4
					C148.3,655.4,148.3,655.4,147.8,655.4 M143.2,654.3h4v-4c0-0.6,0.6-0.6,0.6-0.6h4v-4h-4c-0.6,0-0.6,0-0.6-0.6v-4h-4v4
					c0,0.6,0,0.6-0.6,0.6h-4v4h4c0.6,0,0.6,0,0.6,0.6V654.3z"/>
			</g>
			<g>
				<path fill="#FFFFFF" d="M147.8,686.3h-5.2c-0.6,0-0.6,0-0.6-0.6v-4h-4.6c-0.6,0-0.6,0-0.6-0.6V676c0-0.6,0.6-0.6,0.6-0.6h4v-4
					c0-0.6,0.6-0.6,0.6-0.6h5.2c0.6,0,0.6,0,0.6,0.6v4h4c0.6,0,0.6,0.6,0.6,0.6v5.2c0,0.6-0.6,0.6-0.6,0.6h-4v4
					C148.3,685.8,148.3,686.3,147.8,686.3 M143.2,684.6h4v-4c0-0.6,0.6-0.6,0.6-0.6h4v-4h-4c-0.6,0-0.6,0-0.6-0.6v-4h-4v4
					c0,0.6,0,0.6-0.6,0.6h-4v4h4c0.6,0,0.6,0.6,0.6,0.6V684.6z"/>
			</g>
			<g>
				<path fill="#FFFFFF" d="M95.6,517.4c0,0,1.1,0,2.3,0c1.1,0,2.9-0.6,2.9-0.6l-0.6,8.6c0,0-1.1-0.6-1.7-0.6
					c-1.1,0-1.7,0.6-1.7,0.6L95.6,517.4z"/>
			</g>
			<g>
				<path fill="#FFFFFF" d="M53.8,527.7c0,0-0.6-0.6-1.7-0.6c-0.6,0-1.7,0-1.7,0s-1.7-5.7-0.6-9.2c1.1-2.3,5.7-2.9,9.7-2.9
					c5.2,0,12,0,12,0s-1.1,0.6-1.1,1.7c0,0.6,0,1.1,0,1.1s-5.7-0.6-8.6,0c-2.3,0-6.9,0.6-8,1.7c-0.6,0.6-1.1,1.7-0.6,3.4
					C53.3,524.8,53.8,527.7,53.8,527.7"/>
			</g>
			<g>
				<path fill="#FFFFFF" d="M76.2,526.5c0,0-0.6,0-1.1,0c-1.7,0-2.9,0.6-2.9,0.6s-2.3-8-0.6-10.9c0.6-1.7,4.6-2.3,9.7-2.3
					s13.2,2.9,13.2,2.9v1.1c0,0-6.3-1.7-10.9-1.7c-4.6,0-6.3,0-6.9,1.1c-1.1,1.1-1.1,3.4-0.6,4.6C76.2,523.7,76.2,526.5,76.2,526.5"
					/>
			</g>
			<g>
				<path fill="#FFFFFF" d="M142,527.7c0,0,0.6-0.6,1.7-0.6c0.6,0,1.7,0,1.7,0s1.7-6.3,0.6-9.2c-1.1-2.3-5.7-2.9-9.7-2.9
					c-5.2,0-12,0-12,0s0.6,0.6,0.6,1.1s0,1.1,0,1.1s5.7-0.6,8.6,0c2.9,0.6,6.9,0.6,8,1.7c1.1,1.1,1.1,2.3,1.1,4S142,527.7,142,527.7
					"/>
			</g>
			<g>
				<path fill="#FFFFFF" d="M119.7,526.5c0,0,0.6,0,1.1,0c1.7,0,2.9,0.6,2.9,0.6s1.7-7.4,0.6-10.9c-0.6-1.7-4.6-2.3-9.7-2.3
					c-5.2,0-12.6,2.9-12.6,2.9v1.1c0,0,6.3-1.7,10.9-1.7s6.3,0,6.9,1.1c0.6,1.1,0.6,3.4,0.6,4.6
					C120.3,524.3,119.7,526.5,119.7,526.5"/>
			</g>
			<g>
				<path fill="#FFFFFF" d="M85.9,552.9h55.6l5.2-23.5c-0.6-0.6-2.9-1.1-2.9-1.1s-2.3,0-2.9,1.7c-1.1,1.7,1.7,4,1.7,4l-1.1,1.7
					c0,0-1.7-2.9-4-2.9c-0.6,0-2.3,0.6-2.3,3.4s0.6,3.4,2.3,3.4s4.6-2.9,4.6-2.9l0.6,1.7l-2.9,5.7c0,0-2.9,1.1-7.4,1.1
					c-6.9,0-7.4-1.1-7.4-1.1l-2.9-5.7l0.6-1.7c0,0,2.9,2.9,4.6,2.9s2.3-1.1,2.3-3.4c0-2.9-1.7-4-2.9-3.4c-1.7,0.6-3.4,2.9-3.4,2.9
					l-1.7-1.7c0,0,2.9-2.3,2.3-4c0-2.3-3.4-2.3-3.4-2.3s-2.9,0-3.4,2.3c-0.6,1.7,2.3,4,2.3,4l-1.1,1.7c0,0-1.7-2.9-4-2.9
					c-0.6,0-2.3,0-2.3,4c0,2.3,0.6,3.4,2.3,3.4s4.6-2.9,4.6-2.9l0.6,1.7l-2.9,5.7c0,0-0.6,1.1-6.9,1.1l0,0c-6.3,0-6.9-1.1-6.9-1.1
					l-3.4-6.3l1.1-1.7c0,0,2.3,2.9,4,3.4c1.7,0,2.9-1.1,2.9-3.4c0-2.9-1.7-4-2.9-4c-1.7,0.6-4,2.9-4,2.9l-1.1-1.7
					c0,0,2.9-2.9,2.3-5.2c-0.6-2.3-3.4-2.3-3.4-2.3s-2.9,0-3.4,2.3c-0.6,2.3,2.3,5.2,2.3,5.2l-1.1,1.7c0,0-2.9-2.9-4.6-2.9
					c-1.1,0-2.9,1.1-2.3,3.4c0,2.9,1.1,4,2.9,4c1.7,0,4-3.4,4-3.4l1.1,1.7l-3.4,6.3c0,0,0,1.1-7.4,1.1c-6.3,0-6.9-1.1-6.9-1.1
					l-2.9-5.7l0.6-1.7c0,0,2.9,2.9,4.6,2.9c1.7,0,2.3-1.1,2.3-3.4c0-3.4-1.7-4-2.3-4c-1.7,0.6-4,2.9-4,2.9l-1.1-1.7
					c0,0,2.9-2.3,2.3-4.6s-3.4-2.3-3.4-2.3s-3.4,0-3.4,2.9c0,1.7,2.3,4,2.3,4l-1.1,1.7c0,0-1.7-2.9-3.4-2.9c-1.1,0-2.3,0.6-2.3,3.4
					c0,2.3,0.6,4,2.3,3.4c1.7,0,4.6-2.9,4.6-2.9l0.6,1.7l-2.9,5.7c0,0-0.6,1.1-7.4,1.1c-4.6,0-7.4-1.1-7.4-1.1l-2.9-5.7l0.6-1.7
					c0,0,2.9,2.9,4.6,2.9s2.3-1.1,2.3-3.4c0-2.9-1.7-4-2.3-3.4c-2.9,0.6-4.6,2.9-4.6,2.9l-1.1-1.7c0,0,2.9-2.3,1.7-4.6
					c-1.1-1.1-3.4-1.1-3.4-1.1s-1.7,0-2.9,0.6l5.2,23.5h55.6"/>
			</g>
			<g>
				<path fill="#FFFFFF" d="M97.9,515.7c4.6,0,8-3.4,8-8s-3.4-8-8-8s-8,3.4-8,8S93.4,515.7,97.9,515.7"/>
			</g>
			<g>
				<path fill="#FFFFFF" d="M97.9,516.2c-5.2,0-8.6-4-8.6-8.6c0-5.2,4-8.6,8.6-8.6c5.2,0,8.6,4,8.6,8.6S103.1,516.2,97.9,516.2
					 M97.9,500.2c-4,0-7.4,3.4-7.4,7.4s3.4,7.4,7.4,7.4s7.4-3.4,7.4-7.4S101.9,500.2,97.9,500.2"/>
			</g>
			<g>
				<path fill="#FFFFFF" d="M52.7,635.4h-5.2c-0.6,0-0.6,0-0.6-0.6v-5.2c0-0.6,0.6-0.6,0.6-0.6h4c0,0,0.6,0,0.6,0.6
					c0.6,1.1,1.1,2.3,1.1,2.9v2.3C53.8,635.4,53.3,635.4,52.7,635.4 M48.1,634.2h4v-1.7c0-0.6-0.6-1.1-1.1-2.3h-2.9V634.2z"/>
			</g>
			<g>
				<path fill="#FFFFFF" d="M147.8,635.4h-5.2c-0.6,0-0.6,0-0.6-0.6v-1.7c0.6-1.7,1.1-2.9,1.7-4l0.6-0.6h4c0.6,0,0.6,0.6,0.6,0.6
					v5.2C148.3,635.4,148.3,635.4,147.8,635.4 M143.2,634.2h4v-4h-2.9c-0.6,1.1-1.1,2.3-1.7,3.4L143.2,634.2z"/>
			</g>
			<g>
				<path fill="#FFFFFF" d="M68.7,670.9h-5.2c-0.6,0-0.6,0-0.6-0.6v-4.6h-4c-0.6,0-0.6,0-0.6-0.6V660c0-0.6,0-0.6,0.6-0.6h4v-4
					c0-0.6,0.6-0.6,0.6-0.6H67h0.6c0.6,0.6,1.1,1.7,1.7,2.3c0,0,0,0,0,0.6v1.7h1.1H71c1.1,1.1,1.7,2.3,2.9,3.4c0,0,0,0,0,0.6v2.3
					c0,0.6,0,0.6-0.6,0.6h-4v4C69.9,670.3,69.3,670.9,68.7,670.9 M64.1,669.7h4v-4c0-0.6,0-0.6,0.6-0.6h4V664
					c-0.6-1.1-1.7-1.7-2.3-2.9h-1.7c-0.6,0-0.6-0.6-0.6-0.6v-2.3c-0.6-0.6-1.1-1.1-1.7-2.3h-2.3v4c0,0.6,0,0.6-0.6,0.6h-4v4h4
					c0.6,0,0.6,0,0.6,0.6V669.7z"/>
			</g>
			<g>
				<path fill="#FFFFFF" d="M84.8,686.3h-5.2c-0.6,0-0.6,0-0.6-0.6v-4h-4.6c-0.6,0-0.6,0-0.6-0.6V676c0-0.6,0-0.6,0.6-0.6h4v-4
					c0-0.6,0.6-0.6,0.6-0.6h1.7h0.6c1.1,1.1,2.9,2.3,4,3.4v0.6v0.6h0.6h0.6c1.1,1.1,2.3,1.7,3.4,2.9v0.6v2.9c0,0.6,0,0.6-0.6,0.6h-4
					v4C85.3,685.8,85.3,686.3,84.8,686.3 M80.2,684.6h4v-4c0-0.6,0-0.6,0.6-0.6h4v-1.7c-1.1-0.6-1.7-1.7-2.9-2.3h-1.1
					c-0.6,0-0.6,0-0.6-0.6v-1.1c-1.1-1.1-2.3-2.3-3.4-3.4h-0.6v4c0,0.6,0,0.6-0.6,0.6h-4v4h4c0.6,0,0.6,0.6,0.6,0.6V684.6z"/>
			</g>
			<g>
				<path fill="#FFFFFF" d="M49.8,625.1h-1.7c-0.6,0-0.6,0-0.6-0.6v-4H43c-0.6,0-0.6,0-0.6-0.6v-5.2c0-0.6,0.6-0.6,0.6-0.6h4
					c0.6,0,0.6,0,0.6,0.6c0.6,4,1.7,7.4,2.9,10.3C50.4,624.5,50.4,625.1,49.8,625.1L49.8,625.1 M43.5,619.3H47
					c-0.6-1.1-0.6-2.9-1.1-4h-2.3V619.3z"/>
			</g>
			<g>
				<path fill="#FFFFFF" d="M116.3,686.3h-5.2c-0.6,0-0.6,0-0.6-0.6v-4h-4c-0.6,0-0.6,0-0.6-0.6v-2.9v-0.6c1.1-0.6,2.3-1.7,3.4-2.9
					c0,0,0,0,0.6,0h1.1v-0.6v-0.6c1.1-1.1,2.3-2.3,3.4-3.4c0,0,0,0,0.6,0h1.7c0.6,0,0.6,0,0.6,0.6v4h4c0.6,0,0.6,0.6,0.6,0.6v5.2
					c0,0.6-0.6,0.6-0.6,0.6h-4v4C116.8,685.8,116.8,686.3,116.3,686.3 M111.7,684.6h4v-4c0-0.6,0.6-0.6,0.6-0.6h4v-4h-4
					c-0.6,0-0.6,0-0.6-0.6v-4h-0.6c-1.1,1.1-2.3,2.3-3.4,2.9v1.1c0,0.6,0,0.6-0.6,0.6H110c-1.1,0.6-1.7,1.7-2.9,2.3v1.7h4
					c0.6,0,0.6,0.6,0.6,0.6L111.7,684.6L111.7,684.6z"/>
			</g>
			<g>
				<path fill="#FFFFFF" d="M132.3,670.9h-5.2c-0.6,0-0.6,0-0.6-0.6v-4.6h-4c-0.6,0-0.6,0-0.6-0.6v-2.3v-0.6
					c1.1-1.1,1.7-1.7,2.9-2.9h0.6h0.6v-1.7v-0.6c0.6-0.6,1.1-1.7,1.7-2.3h0.6h3.4c0.6,0,0.6,0,0.6,0.6v4h4c0.6,0,0.6,0.6,0.6,0.6
					v5.2c0,0.6,0,0.6-0.6,0.6h-4v4C132.9,670.3,132.3,670.9,132.3,670.9 M127.1,669.7h4v-4c0-0.6,0-0.6,0.6-0.6h4v-4h-4
					c-0.6,0-0.6-0.6-0.6-0.6v-4h-2.3c-0.6,0.6-1.1,1.1-1.7,1.7v1.7c0,0.6,0,0.6-0.6,0.6h-1.7c-0.6,1.1-1.7,1.7-2.3,2.9v1.1h4
					c0.6,0,0.6,0,0.6,0.6L127.1,669.7L127.1,669.7z"/>
			</g>
			<g>
				<path fill="#FFFFFF" d="M147.8,625.6H146h-0.6v-0.6c1.1-2.9,1.7-6.3,2.9-10.3c0-0.6,0.6-0.6,0.6-0.6h4c0.6,0,0.6,0.6,0.6,0.6
					v5.2c0,0.6,0,0.6-0.6,0.6h-4v4C148.3,625.1,148.3,625.6,147.8,625.6 M148.3,619.3h4v-4h-2.9
					C148.9,616.5,148.3,618.2,148.3,619.3"/>
			</g>
			<g>
				<path fill="#FFFFFF" d="M97.9,684.6L97.9,684.6c-0.6-0.6-32.1-20.6-47-56.1c-10.3-21.8-10.9-75-10.9-75.6v-0.6h115.1v0.6
					c0,0.6-0.6,53.3-10.3,76.2C130,664.6,98.5,684.6,97.9,684.6L97.9,684.6z M41.2,553.5c0,6.3,1.1,53.8,10.3,75
					c14.3,33.2,42.4,52.7,45.8,55c3.4-2.3,32.1-21.8,45.8-55c9.2-21.2,10.3-68.7,10.3-75L41.2,553.5L41.2,553.5z"/>
			</g>
			<g>
				<path fill="#FFFFFF" d="M97.4,569.5l-4-0.6c-1.1,0-2.3-0.6-2.3-0.6c-0.6,0-0.6,0.6-0.6,0.6s1.1,0.6,2.3,0.6l5.2,0.6L97.4,569.5z
					"/>
			</g>
			<g>
				<path fill="#FFFFFF" d="M49.3,557.5c0,0-0.6,5.7,0.6,9.7c1.1,4,4,9.7,4,9.7s1.7-1.7,4.6-4.6c2.9-2.9,6.3-2.3,6.3-2.3h5.2v-5.2
					h-5.2c0,0-5.2,0-8-1.7C53.8,560.9,49.3,557.5,49.3,557.5"/>
			</g>
			<g>
				<path fill="#FFFFFF" d="M100.2,497.9v-6.3h4.6v-4h-4.6v-5.2h-4.6v5.2h-4.6v4h4.6v6.3c0.6,0,1.7-0.6,2.3-0.6
					C98.5,497.9,99.7,497.9,100.2,497.9"/>
			</g>
			<g>
				<path fill="#FFFFFF" d="M70.4,523.1c0,0-3.4,0.6-8,2.3c-4,1.7-6.9,4-6.9,4s0,1.1,0,1.7c0,0,3.4-2.9,7.4-4.6s7.4-2.3,7.4-2.3
					L70.4,523.1z"/>
			</g>
			<g>
				<path fill="#FFFFFF" d="M76.7,522.5v1.1c0,0,9.2-1.1,17.8-1.1v-1.1C89.3,521.4,80.2,522,76.7,522.5"/>
			</g>
			<g>
				<path fill="#FFFFFF" d="M125.4,523.7c0,0,3.4,0.6,8,2.3c4,1.7,6.3,3.4,6.3,3.4s-0.6,0.6,0,1.7c0,0-2.9-2.3-6.9-4
					s-7.4-2.3-7.4-2.3V523.7z"/>
			</g>
			<g>
				<path fill="#FFFFFF" d="M119.1,522.5v1.1c0,0-9.2-1.1-17.8-1.1v-1.1C106,521.4,115.7,522,119.1,522.5"/>
			</g>
			<g>
				<path fill="#FFFFFF" d="M104.2,566.1l0.6-0.6l-1.7-0.6v1.1C103.1,566.1,103.7,566.1,104.2,566.1 M143.8,599.3c0,0-2.3,0.6-4,0
					c-0.6,0-2.3-0.6-2.9-0.6c-1.1,0-2.9,0.6-2.9,0.6s1.7-2.9,5.7-6.9c4-3.4,9.7-11.5,8-18.3s-5.2-9.2-10.3-9.2c-5.2,0-8,1.7-9.7,5.7
					c-0.6,1.7,0,2.9-0.6,5.2c0,0-1.1,1.7-2.3,3.4c-1.1,1.1-2.3,5.7-2.3,5.7h0.6l4-4v2.3c0,0-1.7,2.3-4.6,5.7c-1.7,2.3-4,6.9-4.6,8.6
					h1.1c0,0,2.3-2.9,8-7.4c1.7-1.1,5.2-3.4,5.7-5.7c0.6-2.3,0-4.6,0-4.6s1.7,1.1,2.3,3.4c0.6,1.7,0,3.4,0,3.4s1.7-4.6,1.7-7.4
					c-0.6-4-1.7-4.6-3.4-5.2c-0.6,0-2.3,0-2.3,0s-1.1-4.6,2.9-5.7c2.9-1.1,6.9-1.1,9.2,2.9c2.9,4.6,1.1,9.7-1.1,12.6
					c-2.3,2.9-6.3,6.9-13.7,12c-5.7,4-9.7,8.6-9.2,13.7c1.1,6.9,6.3,14.9,9.2,18.9c2.9,4,4,9.2,1.7,12.6c-2.3,3.4-8,4.6-11.5,2.3
					c-2.9-2.3-6.3-8-9.2-15.5c-2.3-6.3-5.2-9.7-5.2-9.7l0.6-21.8l1.7,0.6c0,0,0-2.3,0.6-4c0.6-2.3,3.4-5.7,5.2-10.3
					c1.7-4,1.7-10.3,1.7-10.3s1.1-1.1,1.7-2.3v-2.3l-1.7-1.1l0,0l3.4-5.2c-0.6,0-2.3,0.6-2.3,0.6s-1.7-1.7-2.3,0
					c0.6,0,1.7,0.6,1.7,0.6l-0.6,1.1l-3.4-1.1l-0.6-1.1c0,0,1.7,1.1,2.3-0.6s-1.1-1.1-1.1-1.1s0.6-1.1-1.1-1.7
					c-1.7-0.6-1.7,1.1-1.7,1.1s-1.7-1.1-1.7,0.6c-0.6,1.7,1.1,1.7,1.1,1.7l-1.1,1.1l-3.4-1.7l-0.6-1.1c0,0,1.7,0,1.7-1.7
					c-0.6-1.7-2.3-0.6-2.3-0.6s-0.6-1.1-1.7-0.6l0.6,5.7l12,2.9l-1.1,0.6l-10.9-2.3l-4,2.9l0.6,1.7l1.7,2.3l-1.7,2.3l5.7,0.6
					l-0.6,1.7c0,0-2.9,0-6.9,1.1c-1.1,0.6-8.6,5.2-10.3,7.4c-1.1,1.1-1.7,2.9-1.7,2.9l-8.6-4.6l-0.6-1.1l-1.7,0.6l-2.3-1.7
					c0,0,1.7-2.3,2.9-4.6c0.6-1.7-0.6-4-0.6-4l-0.6-0.6v2.9l-2.3,0.6l-1.1,3.4l-0.6-0.6v-16h-2.9v14.3c0,0,0-0.6-2.3-0.6
					c-2.3,0-3.4,0.6-3.4,0.6l-0.6,0.6l3.4,0.6l0.6,2.3l2.9,0.6v1.7c0,0-1.1-0.6-2.9,1.1s-2.3,4-2.3,4v1.1c0.6-0.6,1.1-2.3,1.7-1.7
					c1.1,0,1.7,0.6,2.3,0.6l1.1-1.1v22.3c0,0-1.7-0.6-2.9,0c-0.6,0-1.7,0.6-1.7,0.6l-0.6,1.1c0,0,2.3-0.6,2.9,0
					c0.6,0.6,0.6,1.1,0.6,1.7s1.1,0.6,1.1,1.1v3.4l-2.3,3.4v1.7l2.3-1.7v8h2.9v-7.4h1.1l3.4-4c0,0,1.7,0,2.3,1.1
					c0.6,0.6,0,1.7,0.6,2.3c0.6,0,0.6,0.6,0.6,0.6L94.5,597l-7.4,9.2l1.7,4l3.4,4l1.1,7.4l-9.2,4.6c0,0-0.6,2.3-1.7,5.7
					c-0.6,3.4-1.1,6.3-1.1,6.3l0.6,2.9L71,639.9l-0.6-2.9c0,0,1.1-1.7,2.3-4c1.1-2.3,0-5.2,0-5.2l-0.6-0.6v3.4l-1.7,0.6l-0.6,3.4
					h-1.1c0,0-0.6-2.3-2.9-3.4c-2.3-1.7-4.6-0.6-4.6-0.6l-0.6,0.6l3.4,1.1l-1.1,0.6l4,1.7l-0.6,0.6l-3.4,0.6l-0.6,1.1H59l0.6,0.6
					c0,0,1.7,1.1,4,1.1s4-1.1,4-1.1l1.1,3.4l-1.7,1.7l0.6,0.6h1.7l12.6,2.9l2.3,1.7l4-1.7c0,0,0-1.7,0.6-2.9
					c0.6-0.6,1.7-2.3,2.3-2.9c0,0-1.7-3.4-2.3-4c-1.1-1.7-1.1-6.9-0.6-7.4c0.6-2.3,7.4-8,7.4-8l1.7-4l0.6,0.6l-1.7,4
					c-4.6,3.4-6.9,6.9-7.4,8c0,0.6,0,5.2,0.6,6.9c0.6,0.6,1.7,3.4,1.7,3.4s1.7,2.3,4.6,4.6c2.3,2.3,4,4,4.6,6.3
					c0.6,3.4,1.1,8.6,1.1,12.6c0,1.7,0,2.9,0,2.9l-2.9,0.6c0,0-2.3-4-2.9-4c-2.3-1.1-4-1.7-4-1.7l-1.1,0.6l2.3,1.7v2.9l4,2.3
					c0,0-2.3,0.6-2.9,0.6c-2.3,0-4,3.4-4,3.4v0.6l2.3-1.1l2.3,1.1l3.4-2.9l0.6,0.6c0,0-0.6,2.3,0,4s1.7,4,1.7,4h1.1l-1.1-3.4
					l2.3-1.7l-1.1-3.4l2.9-2.3l2.9,2.3l0.6-0.6c-1.7-4-0.6-15.5-0.6-15.5s1.1-1.1,1.1-2.3s0-2.9,0-4c-0.6-0.6-1.1-2.3-1.1-2.3
					s-1.1-5.2-0.6-10.9c0-1.1,0-2.3,0-3.4c0.6,1.1,3.4,6.3,6.3,9.2c4.6,5.7,9.7,6.3,13.2,5.7c11.5-3.4,8.6-14.9,8.6-14.9
					c-4.6-11.5-4-13.2-4-13.2l8-3.4v-0.6h-2.9l-3.4-0.6H130v-1.1l11.5-5.2v-0.6h-2.3l-4.6-1.1l-4,0.6l0.6-1.7L143.8,599.3z
					 M114,567.2l1.1,0.6v1.1l-1.1,1.1l-0.6-1.7l-1.1-1.1H114z M67.6,615.3v-3.4c0,0,2.3,0,2.3,1.1C69.9,614.7,67.6,615.3,67.6,615.3
					 M75,611.3l-2.3-1.7v-5.2l-2.9-4.6h-1.1l1.1,2.9l-1.1,2.9l1.1,2.9l-1.1,1.1l-1.7-2.3v-25.2l2.3,1.1l-0.6,2.3l1.1,1.1l1.1-0.6
					l10.9,8l-0.6,2.3l3.4-0.6L75,611.3z M89.9,585c-0.6,0.6-4,5.7-4,5.7l-0.6-0.6c0.6-1.1,3.4-5.7,4-6.3c1.1-0.6,4.6-1.1,6.9-1.1
					v1.1C96.2,583.8,91.1,584.4,89.9,585 M99.7,565.5l2.3-1.7l6.3,1.1v1.1c-0.6-0.6-3.4-1.1-3.4-1.1c-0.6,1.1-0.6,1.1-1.1,1.7
					c0,0-1.1,0-1.7,0c-0.6-0.6-0.6-1.7-0.6-1.7C100.8,565.5,100.2,566.1,99.7,565.5L99.7,565.5z M100.8,570.6l-0.6-1.7l4.6,0.6
					l0.6,1.7L100.8,570.6z"/>
			</g>
			<g>
				<rect x="234.2" y="551.7" fill="#FFFFFF" width="1.7" height="155.8"/>
			</g>
		</g>
	</g>
</g>
<g id="_x39_6">
	<g id="Layer_1_copy_1_">
		<g>
			<g>
				<path fill="#FFFFFF" d="M116,618.6h17.1c9.7,0,14.9,2.4,14.9,14.5s-5.1,14.5-14.9,14.5H126v9h-10V618.6z M133.1,638.6
					c2.2,0,4.6,0.4,4.6-5.5c0-5.8-2.7-5.5-4.9-5.5H126v11H133.1z"/>
			</g>
			<g>
				<path fill="#FFFFFF" d="M152,638c0-16.8,7.3-19.8,18.8-19.8c11.5,0,18.8,3,18.8,19.6c0,14.8-7.3,18.7-18.8,18.7
					C158.7,656.6,152,652.9,152,638 M179,639.5v-3c0-7.3-1.7-9.5-8.3-9.5c-6.3,0-8,2.2-8,9.5v3c0,7.3,1.9,9.2,8.3,9.2
					C177.3,648.5,179,646.8,179,639.5"/>
			</g>
			<g>
				<polygon fill="#FFFFFF" points="194,618.6 203,618.6 203,648.6 222,648.6 222,656.6 194,656.6 				"/>
			</g>
			<g>
				<rect x="226.2" y="618.6" fill="#FFFFFF" width="9.8" height="38"/>
			</g>
			<g>
				<polygon fill="#FFFFFF" points="252,627.6 240.2,627.6 240.2,618.6 275,618.6 275,627.6 262,627.6 262,656.6 252,656.6 				"/>
			</g>
			<g>
				<rect x="279.2" y="618.6" fill="#FFFFFF" width="9.8" height="38"/>
			</g>
			<g>
				<polygon fill="#FFFFFF" points="293.2,618.6 321,618.6 321,627.6 303,627.6 303,633.6 317,633.6 317,642.3 303,642.3 303,648.6
					321,648.6 321,656.6 293.2,656.6 				"/>
			</g>
			<g>
				<polygon fill="#FFFFFF" points="337.2,627.6 325.2,627.6 325.2,618.6 359,618.6 359,627.6 347,627.6 347,656.6 337.2,656.6
					"/>
			</g>
			<g>
				<rect x="101" y="619.6" fill="#FFFFFF" width="1" height="67"/>
			</g>
		</g>
	</g>
</g>
<g id="Layer_5">
	<path fill="#FFFFFF" stroke="#FF234E" stroke-miterlimit="10" d="M43.7,619.5"/>
	<g>
		<g>
			<path fill="#FFFFFF" d="M42.3,627.7l-1.7-0.2c-0.5,0-1-0.2-1-0.2c-0.2,0-0.2,0.2-0.2,0.2s0.5,0.2,1,0.2l2.2,0.2L42.3,627.7z"/>
		</g>
		<g>
			<path fill="#FFFFFF" d="M21.8,622.5c0,0-0.2,2.4,0.2,4.1c0.5,1.7,1.7,4.1,1.7,4.1s0.7-0.7,1.9-1.9c1.2-1.2,2.7-1,2.7-1h2.2v-2.2
				h-2.2c0,0-2.2,0-3.4-0.7C23.7,624,21.8,622.5,21.8,622.5"/>
		</g>
		<g>
			<path fill="#FFFFFF" d="M45.2,626.2l0.2-0.2l-0.7-0.2v0.5C44.7,626.2,44.9,626.2,45.2,626.2 M62,640.3c0,0-1,0.2-1.7,0
				c-0.2,0-1-0.2-1.2-0.2c-0.5,0-1.2,0.2-1.2,0.2s0.7-1.2,2.4-2.9c1.7-1.5,4.1-4.9,3.4-7.8c-0.7-2.9-2.2-3.9-4.4-3.9
				c-2.2,0-3.4,0.7-4.1,2.4c-0.2,0.7,0,1.2-0.2,2.2c0,0-0.5,0.7-1,1.5c-0.5,0.5-1,2.4-1,2.4h0.2l1.7-1.7v1c0,0-0.7,1-1.9,2.4
				c-0.7,1-1.7,2.9-1.9,3.7h0.5c0,0,1-1.2,3.4-3.2c0.7-0.5,2.2-1.5,2.4-2.4c0.2-1,0-1.9,0-1.9s0.7,0.5,1,1.5c0.2,0.7,0,1.5,0,1.5
				s0.7-1.9,0.7-3.2c-0.2-1.7-0.7-1.9-1.5-2.2c-0.2,0-1,0-1,0s-0.5-1.9,1.2-2.4c1.2-0.5,2.9-0.5,3.9,1.2c1.2,1.9,0.5,4.1-0.5,5.4
				c-1,1.2-2.7,2.9-5.8,5.1c-2.4,1.7-4.1,3.7-3.9,5.8c0.5,2.9,2.7,6.3,3.9,8s1.7,3.9,0.7,5.4c-1,1.5-3.4,1.9-4.9,1
				c-1.2-1-2.7-3.4-3.9-6.6c-1-2.7-2.2-4.1-2.2-4.1l0.2-9.3l0.7,0.2c0,0,0-1,0.2-1.7c0.2-1,1.5-2.4,2.2-4.4c0.7-1.7,0.7-4.4,0.7-4.4
				s0.5-0.5,0.7-1v-1l-0.7-0.5l0,0l1.5-2.2c-0.2,0-1,0.2-1,0.2s-0.7-0.7-1,0c0.2,0,0.7,0.2,0.7,0.2l-0.2,0.5l-1.5-0.5l-0.2-0.5
				c0,0,0.7,0.5,1-0.2s-0.5-0.5-0.5-0.5s0.2-0.5-0.5-0.7s-0.7,0.5-0.7,0.5s-0.7-0.5-0.7,0.2c-0.2,0.7,0.5,0.7,0.5,0.7l-0.5,0.5
				l-1.5-0.7l-0.2-0.5c0,0,0.7,0,0.7-0.7c-0.2-0.7-1-0.2-1-0.2s-0.2-0.5-0.7-0.2l0.2,2.4l5.1,1.2l-0.5,0.2l-4.6-1l-1.7,1.2l0.2,0.7
				l0.7,1l-0.7,1l2.4,0.2l-0.2,0.7c0,0-1.2,0-2.9,0.5c-0.5,0.2-3.7,2.2-4.4,3.2c-0.5,0.5-0.7,1.2-0.7,1.2l-3.7-1.9l-0.2-0.5
				l-0.7,0.2l-1-0.7c0,0,0.7-1,1.2-1.9c0.2-0.7-0.2-1.7-0.2-1.7l-0.2-0.2v1.2l-1,0.2l-0.5,1.5l-0.2-0.2V624h-1.2v6.1
				c0,0,0-0.2-1-0.2s-1.5,0.2-1.5,0.2l-0.2,0.2l1.5,0.2l0.2,1l1.2,0.2v0.7c0,0-0.5-0.2-1.2,0.5c-0.7,0.7-1,1.7-1,1.7v0.5
				c0.2-0.2,0.5-1,0.7-0.7c0.5,0,0.7,0.2,1,0.2l0.5-0.5v9.5c0,0-0.7-0.2-1.2,0c-0.2,0-0.7,0.2-0.7,0.2l-0.2,0.5c0,0,1-0.2,1.2,0
				c0.2,0.2,0.2,0.5,0.2,0.7s0.5,0.2,0.5,0.5v1.5l-1,1.5v0.7l1-0.7v3.4h1.2v-3.2h0.5l1.5-1.7c0,0,0.7,0,1,0.5c0.2,0.2,0,0.7,0.2,1
				c0.2,0,0.2,0.2,0.2,0.2l7.8-9.5l-3.2,3.9l0.7,1.7l1.5,1.7l0.5,3.2l-3.9,1.9c0,0-0.2,1-0.7,2.4c-0.2,1.5-0.5,2.7-0.5,2.7l0.2,1.2
				l-4.6-0.5l-0.2-1.2c0,0,0.5-0.7,1-1.7s0-2.2,0-2.2l-0.2-0.2v1.5l-0.7,0.2l-0.2,1.5h-0.5c0,0-0.2-1-1.2-1.5
				c-1-0.7-1.9-0.2-1.9-0.2l-0.2,0.2l1.5,0.5l-0.5,0.2l1.7,0.7l-0.2,0.2l-1.5,0.2l-0.2,0.5h-1.5l0.2,0.2c0,0,0.7,0.5,1.7,0.5
				c1,0,1.7-0.5,1.7-0.5l0.5,1.5l-0.7,0.7l0.2,0.2h0.7l5.4,1.2l1,0.7l1.7-0.7c0,0,0-0.7,0.2-1.2c0.2-0.2,0.7-1,1-1.2
				c0,0-0.7-1.5-1-1.7c-0.5-0.7-0.5-2.9-0.2-3.2c0.2-1,3.2-3.4,3.2-3.4l0.7-1.7l0.2,0.2l-0.7,1.7c-1.9,1.5-2.9,2.9-3.2,3.4
				c0,0.2,0,2.2,0.2,2.9c0.2,0.2,0.7,1.5,0.7,1.5s0.7,1,1.9,1.9c1,1,1.7,1.7,1.9,2.7c0.2,1.5,0.5,3.7,0.5,5.4c0,0.7,0,1.2,0,1.2
				l-1.2,0.2c0,0-1-1.7-1.2-1.7c-1-0.5-1.7-0.7-1.7-0.7l-0.5,0.2l1,0.7v1.2l1.7,1c0,0-1,0.2-1.2,0.2c-1,0-1.7,1.5-1.7,1.5v0.2l1-0.5
				l1,0.5l1.5-1.2l0.2,0.2c0,0-0.2,1,0,1.7s0.7,1.7,0.7,1.7H44l-0.5-1.5l1-0.7l-0.5-1.5l1.2-1l1.2,1l0.2-0.2
				c-0.7-1.7-0.2-6.6-0.2-6.6s0.5-0.5,0.5-1s0-1.2,0-1.7c-0.2-0.2-0.5-1-0.5-1s-0.5-2.2-0.2-4.6c0-0.5,0-1,0-1.5
				c0.2,0.5,1.5,2.7,2.7,3.9c1.9,2.4,4.1,2.7,5.6,2.4c4.9-1.5,3.7-6.3,3.7-6.3c-1.9-4.9-1.7-5.6-1.7-5.6l3.4-1.5v-0.2h-1.2l-1.5-0.2
				h-1v-0.5l4.9-2.2v-0.2h-1l-1.9-0.5l-1.7,0.2l0.2-0.7L62,640.3z M49.3,626.7l0.5,0.2v0.5l-0.5,0.5l-0.2-0.7l-0.5-0.5H49.3z
				 M29.6,647.1v-1.5c0,0,1,0,1,0.5C30.6,646.9,29.6,647.1,29.6,647.1 M32.8,645.4l-1-0.7v-2.2l-1.2-1.9h-0.5l0.5,1.2l-0.5,1.2
				l0.5,1.2l-0.5,0.5l-0.7-1V633l1,0.5l-0.2,1l0.5,0.5l0.5-0.2l4.6,3.4l-0.2,1l1.5-0.2L32.8,645.4z M39.1,634.2
				c-0.2,0.2-1.7,2.4-1.7,2.4l-0.2-0.2c0.2-0.5,1.5-2.4,1.7-2.7c0.5-0.2,1.9-0.5,2.9-0.5v0.5C41.8,633.7,39.6,634,39.1,634.2
				 M43.2,625.9l1-0.7l2.7,0.5v0.5c-0.2-0.2-1.5-0.5-1.5-0.5c-0.2,0.5-0.2,0.5-0.5,0.7c0,0-0.5,0-0.7,0c-0.2-0.2-0.2-0.7-0.2-0.7
				C43.7,625.9,43.5,626.2,43.2,625.9L43.2,625.9z M43.7,628.1l-0.2-0.7l1.9,0.2l0.2,0.7L43.7,628.1z"/>
		</g>
	</g>
</g>
<g id="crown">
	<circle fill="#FFFFFF" cx="43" cy="601.1" r="3.5"/>
	<g>
		<rect x="42" y="590.6" fill="#FFFFFF" width="2" height="6"/>
		<rect x="40" y="592.6" fill="#FFFFFF" width="6" height="2"/>
	</g>
	<path fill="#FFFFFF" d="M76,629.5"/>
	<g>
		<path fill="#FFFFFF" d="M35,679.6v1v1h3v-1v-1v-1h-3V679.6z M36,679.6h1v1h-1V679.6z"/>
		<path fill="#FFFFFF" d="M21,679.6v1v1h3v-1v-1v-1h-3V679.6z M22,679.6h1v1h-1V679.6z"/>
		<path fill="#FFFFFF" d="M28,672.6v1v1h3v-1v-1v-1h-3V672.6z M29,672.6h1v1h-1V672.6z"/>
		<path fill="#FFFFFF" d="M21,665.6v1v1h3v-1v-1v-1h-3V665.6z M22,665.6h1v1h-1V665.6z"/>
		<path fill="#FFFFFF" d="M23,651.7v-0.2h-0.1C23,651.6,23,651.6,23,651.7z"/>
		<path fill="#FFFFFF" d="M49,679.6v1v1h3v-1v-1v-1h-3V679.6z M50,679.6h1v1h-1V679.6z"/>
		<path fill="#FFFFFF" d="M63,679.6v1v1h3v-1v-1v-1h-3V679.6z M64,679.6h1v1h-1V679.6z"/>
		<path fill="#FFFFFF" d="M56,672.6v1v1h3v-1v-1v-1h-3V672.6z M57,672.6h1v1h-1V672.6z"/>
		<path fill="#FFFFFF" d="M66,666.6v-1v-1h-3v1v1v1h3V666.6z M65,666.6h-1v-1h1V666.6z"/>
		<path fill="#FFFFFF" d="M77,639.6c5.5,0,9-4.5,9-10s-3.5-10-9-10h-1h-2.4l2.4-4h0v0l0.6-0.9l-4.1-9.3l-4.1,9.3l0.6,0.9v0h0l2.4,4
			H69l0,0v0h-7.1l2-8.6c-0.2-0.2-1.2-0.5-1.2-0.5s-1,0-1.2,0.7c-0.5,0.7,0.7,1.7,0.7,1.7l-0.5,0.7c0,0-0.7-1.2-1.7-1.2
			c-0.2,0-1,0.2-1,1.5c0,1.2,0.2,1.5,1,1.5s1.9-1.2,1.9-1.2l0.2,0.7l-1.2,2.4c0,0-1.2,0.5-3.2,0.5c-2.9,0-3.2-0.5-3.2-0.5l-1.2-2.4
			l0.2-0.7c0,0,1.2,1.2,1.9,1.2s1-0.5,1-1.5c0-1.2-0.7-1.7-1.2-1.5c-0.7,0.2-1.5,1.2-1.5,1.2l-0.7-0.7c0,0,1.2-1,1-1.7
			c0-1-1.5-1-1.5-1s-1.2,0-1.5,1c-0.2,0.7,1,1.7,1,1.7l-0.5,0.7c0,0-0.7-1.2-1.7-1.2c-0.2,0-1,0-1,1.7c0,1,0.2,1.5,1,1.5
			s1.9-1.2,1.9-1.2l0.2,0.7l-1.2,2.4c0,0-0.2,0.5-2.9,0.5c-2.7,0-2.9-0.5-2.9-0.5l-1.5-2.7l0.5-0.7c0,0,1,1.2,1.7,1.5
			c0.7,0,1.2-0.5,1.2-1.5c0-1.2-0.7-1.7-1.2-1.7c-0.7,0.2-1.7,1.2-1.7,1.2l-0.5-0.7c0,0,1.2-1.2,1-2.2s-1.5-1-1.5-1s-1.2,0-1.5,1
			s1,2.2,1,2.2l-0.5,0.7c0,0-1.2-1.2-1.9-1.2c-0.5,0-1.2,0.5-1,1.5c0,1.2,0.5,1.7,1.2,1.7c0.7,0,1.7-1.5,1.7-1.5l0.5,0.7l-1.5,2.7
			c0,0,0,0.5-3.2,0.5c-2.7,0-2.9-0.5-2.9-0.5l-1.2-2.4l0.2-0.7c0,0,1.2,1.2,1.9,1.2s1-0.5,1-1.5c0-1.5-0.7-1.7-1-1.7
			c-0.7,0.2-1.7,1.2-1.7,1.2l-0.5-0.7c0,0,1.2-1,1-1.9c-0.2-1-1.5-1-1.5-1s-1.5,0-1.5,1.2c0,0.7,1,1.7,1,1.7l-0.5,0.7
			c0,0-0.7-1.2-1.5-1.2c-0.5,0-1,0.2-1,1.5c0,1,0.2,1.7,1,1.5c0.7,0,1.9-1.2,1.9-1.2l0.2,0.7l-1.2,2.4c0,0-0.2,0.5-3.2,0.5
			c-1.9,0-3.2-0.5-3.2-0.5l-1.2-2.4l0.2-0.7c0,0,1.2,1.2,1.9,1.2s1-0.5,1-1.5c0-1.2-0.7-1.7-1-1.5c-1.2,0.2-1.9,1.2-1.9,1.2
			l-0.5-0.7c0,0,1.2-1,0.7-1.9c-0.5-0.5-1.5-0.5-1.5-0.5s-0.7,0-1.2,0.2l2,8.8H19v0h-1h-2.4l2.4-4h0v0l0.6-0.9l-4.1-9.3l-4.1,9.3
			l0.6,0.9v0h0l2.4,4H11h-1c-5.5,0-9,4.5-9,10s3.5,10,9,10v34h1v0h1v7h1h2c1.1,0,2,0.9,2,2v3v1h1h25.9H45h24h1v-1v-3
			c0-1.1,0.9-2,2-2h2h1v-7h1h1V639.6z M73.1,646.7l-0.6,1l-0.6-1l0.6-1L73.1,646.7z M60,679.6v1l-2,0v2h-1v-2h-2v-1h2v-2h1v2
			L60,679.6z M59,682.6v-1l1,0h1v-1v-1v-1h-1h-1v-1v-1h-1h-1h-1v1v1h-1h-1v1v1v1h1h1v1v1H45v-1v-1h1h0h1v-1v-1v-1h-1h-1v-1v-1h-0.1
			c1-0.6,2-1.3,2.9-2H48h1v1v1h1h1h1v-1v-1h1h1v-1v-1v-1h-1h-1v-0.4c1.3-1.1,2.4-2.4,3.5-3.6H56v1v1h1h1h1v-1v-1h1h1v-1v-1v-1h-1h-1
			v-1v-0.4c0.7-1,1.4-2,2-3.1v0.5h1h1v1v1h1h1h1v-1v-1h1h1v11h-1h-1v-1v-1h-1h-1h-1v1v1h-1h-1v1v1v1h1h1v1v1h1h1h1v-1v-1h1h1v-1h1h3
			v1v3c-2.8,0-5,2.2-5,5v1h-8V682.6z M32,679.6v1h-2v2h-1v-2l-2,0v-1l2,0v-2h1v2H32z M31,682.6v-1h1h1v-1v-1v-1h-1h-1v-1v-1h-1h-1
			h-1v1v1h-1l-1,0v1v1v1l1,0h1v1v1h-8v-1c0-2.8-2.2-5-5-5v-3v-1h3v0h1v0v1h1h1v1v1h1h1h1v-1v-1h1h1v-1v-1v-1h-1h-1v-1v-1h-1h-1h-1v1
			v1h-1h-1v-11h1h1v1v1h1h1h1v-1v-1h1h1v-0.5c0.6,1.1,1.3,2.1,2,3.1v0.4v1h-1h-1v1v1v1h1h1v1v1h1h1h1v-1v-1h0.5
			c1.1,1.3,2.3,2.5,3.5,3.6v0.4h-1h-1v1v1v1h1h1v1v1h1h1h1v-1v-1h1h0.2c0.9,0.7,1.9,1.4,2.9,2H42v1v1h-1h-1v1v1v1h1h0h1v1v1H31
			V682.6z M11,639.5v-0.9v-0.1v-0.7l2.6-4l0.6,1l-3.1,4.8l-0.1,0.1V639.5L11,639.5z M11,631.5v-1.7l2.2,3.5l-2.2,3.5v-4.2V631.5z
			 M22.7,653.6c0.3,0.7,0.6,1.3,0.9,2H23h-1h-1v1v1h-1h-1v-17.1c0.6,3.5,1.5,6.9,2.6,10.1H21v1v1v1H22.7z M24.6,657.5
			C24.6,657.5,24.6,657.5,24.6,657.5l-0.6,0v0H24.6z M25,658.6v1h-2v2h-1v-2l-2,0v-1l2,0v-2h1v2H25z M15.1,660.1l-0.6,1l-0.6-1
			l0.6-1L15.1,660.1z M11.5,653.4L11.5,653.4L11.5,653.4l3.1-4.8l3.1,4.7l0,0l0,0l-3.1,4.7L11.5,653.4z M17.4,666.5h-5.7l2.8-4.4
			L17.4,666.5z M14.8,661.6l0.6-1l2.5,3.9v2h0L14.8,661.6z M15.8,660.1l2.2-3.4v6.9L15.8,660.1z M15.5,659.6l-0.6-1l3.1-4.9l0,0v2
			L15.5,659.6z M18,653.1l-3.1-4.9l0.6-1l2.5,3.9L18,653.1L18,653.1z M15.8,646.7l2.2-3.4v6.9L15.8,646.7z M14.5,635.2l3.1,4.7
			l-3.1,4.7l-3.1-4.7L14.5,635.2z M17.6,626.6L17.6,626.6l-3.1,4.8l-3.1-4.7l0,0H17.6z M18,639.6L18,639.6l-3.2-4.9l0.6-1l2.5,3.9
			V639.6z M18,636.7l-2.2-3.4l2.2-3.4V636.7z M18,628.8l-2.5,3.9l-0.6-1l3.2-4.9l0,0V628.8z M14.2,631.8l-0.6,1l-2.6-4v-1.3v-0.6
			l0,0L14.2,631.8z M14.5,632.3l0.6,1l-0.6,1l-0.6-1L14.5,632.3z M17.9,640.4L17.9,640.4l0.1,1.9l-2.5,3.9l-0.6-1L17.9,640.4z
			 M18,625.6h-7v-2h7V625.6z M11,640.3L11,640.3l3.2,4.9l-0.6,1l-2.6-4V640.3z M14.5,645.7l0.6,1l-0.6,1l-0.6-1L14.5,645.7z
			 M14.2,648.2l-3.1,4.9l0,0l0,0v-1.9l2.6-4L14.2,648.2z M11,653.7L11,653.7l3.2,4.9l-0.6,1l-2.6-4L11,653.7L11,653.7z M13.2,660.1
			l-2.2,3.5v-7L13.2,660.1z M13.6,660.6l0.6,1l-3.2,4.9h0l0,0v-1.9L13.6,660.6z M18,667.5v2h-7v-2H18z M25,672.6v1h-2v2h-1v-2l-2,0
			v-1l2,0v-2h1v2H25z M27,666.6v-1l2,0v-1c0.5,0.7,1,1.3,1.6,2H30v2h-1v-2L27,666.6z M34,673.6v-1l2,0V672c0.6,0.5,1.2,1,1.8,1.5H37
			v2h-1v-2L34,673.6z M44,679.5L44,679.5l2,0v1l-2,0v0v2h-1v-2v0l-2,0v-1h2v0v-2h1V679.5z M53,672.6v1l-2,0v2h-1v-2h-0.8
			c0.6-0.5,1.2-1,1.8-1.5v0.5L53,672.6z M60,665.6v1l-2,0v2h-1v-2h-0.6c0.5-0.6,1.1-1.3,1.6-2v1L60,665.6z M64,658.6v-2h1v2l2,0v1
			l-2,0v2h-1v-2h-2v-1H64z M62,673.6v-1h2v-2h1v2l2,0v1l-2,0v2h-1v-2H62z M68,657.6h-1h-1v-1v-1h-1h-1h-0.6c0.3-0.7,0.6-1.3,0.9-2
			H66v-1v-1v-1h-0.6c1.1-3.2,2-6.6,2.6-10.1V657.6z M76,639.6v0.1V639.6l-3.2-4.8l0.6-1l2.6,4v0.7v0.1V639.6L76,639.6z M75.5,640
			l-3.1,4.7l-3.1-4.7l3.1-4.7L75.5,640z M73.1,633.3l-0.6,1l-0.6-1l0.6-1L73.1,633.3z M72.8,631.8l3.2-4.9l0,0v0.6v1.3l-2.6,4
			L72.8,631.8z M75.5,626.6l-3.1,4.7l-3.1-4.7l0,0L75.5,626.6L75.5,626.6z M72.2,631.8l-0.6,1l-2.5-3.9v-2l0,0L72.2,631.8z
			 M71.2,633.3l-2.2,3.4v-6.9L71.2,633.3z M69,637.7l2.5-3.9l0.6,1l-3.1,4.8l-0.1,0V637.7z M69,640.4L69,640.4l3.2,4.9l-0.6,1
			l-2.5-3.9V640.4z M77,632.7c1.2,0.4,2,1.5,2,2.8c0,1.3-0.8,2.4-2,2.8V632.7z M76,632.6v4.2l-2.2-3.5l2.2-3.5v1.7V632.6z M69,643.3
			l2.2,3.4l-2.2,3.4V643.3z M69,666.6v-2l2.5-3.9l0.6,1L69,666.6L69,666.6z M69,663.6v-6.9l2.2,3.4L69,663.6z M69,655.7v-2l0,0
			l3.1,4.9l-0.6,1L69,655.7z M69,653.1v-2l2.5-3.9l0.6,1L69,653.1L69,653.1z M72.5,662.1l2.8,4.4h-5.7L72.5,662.1z M71.9,660.2
			l0.6-1l0.6,1l-0.6,1L71.9,660.2z M69.4,653.5L69.4,653.5L69.4,653.5l3.1-4.8l3.1,4.7l0,0l0,0l-3.1,4.7L69.4,653.5z M72.8,645.2
			l3.1-4.8l0.1-0.1v1.9l-2.6,4L72.8,645.2z M85,629.6c0,4.3-2.1,8-6.2,8.8c0.7-0.7,1.2-1.7,1.2-2.8c0-1.9-1.3-3.4-3-3.9v-4.3
			c1.7-0.4,3-2,3-3.9c0-1.1-0.4-2.1-1.2-2.8C82.9,621.6,85,625.2,85,629.6z M79,623.6c0,1.3-0.8,2.4-2,2.8v-5.6
			C78.2,621.2,79,622.2,79,623.6z M73,618.6v-3h1.8L73,618.6z M75.4,614.6H73v-5.6L75.4,614.6L75.4,614.6z M72,608.9v5.6h-2.4l0,0
			L72,608.9z M72,615.6v3l-1.8-3H72z M72,619.5L72,619.5L72,619.5L72,619.5z M69,620.6h7v0.1v1.9h-7V620.6z M69,623.6h7v2h-7V623.6z
			 M24.4,620.5L24.4,620.5l13.6,0h10h13.6v0H68l-0.1,11.7c-0.4,6.7-1.6,12.8-3.5,18.3c-0.1,0.3-0.2,0.7-0.4,1H64v0.2
			c-0.2,0.6-0.5,1.2-0.7,1.8c-0.6,1.4-1.2,2.7-1.9,4c-0.1,0.2-0.2,0.5-0.4,0.7c-0.8,1.5-1.7,2.9-2.7,4.3c-0.2,0.3-0.5,0.7-0.7,1
			c-0.2,0.3-0.4,0.5-0.6,0.8c-0.3,0.4-0.6,0.8-1,1.2c-0.3,0.3-0.6,0.7-0.9,1c-0.3,0.3-0.6,0.7-0.9,1c-0.7,0.8-1.5,1.5-2.3,2.3
			c-0.3,0.3-0.7,0.6-1,0.9c-0.3,0.3-0.7,0.6-1,0.8c-0.4,0.3-0.7,0.6-1.1,0.9c-0.3,0.2-0.6,0.4-0.9,0.6c-0.3,0.3-0.7,0.5-1,0.7
			c-1.1,0.8-2.1,1.5-3.3,2.2l0.3,0.4h-1l0.3-0.4c-1.1-0.7-2.2-1.4-3.3-2.2c-0.3-0.2-0.7-0.5-1-0.7c-0.3-0.2-0.6-0.4-0.9-0.6
			c-0.4-0.3-0.8-0.6-1.1-0.9c-0.3-0.3-0.7-0.6-1-0.8c-0.3-0.3-0.7-0.6-1-0.9c-0.8-0.7-1.5-1.5-2.3-2.3c-0.3-0.3-0.6-0.7-0.9-1
			c-0.3-0.3-0.6-0.7-0.9-1c-0.3-0.4-0.6-0.8-1-1.2c-0.2-0.3-0.4-0.5-0.6-0.8c-0.2-0.3-0.5-0.7-0.7-1c-1-1.4-1.9-2.8-2.7-4.3
			c-0.1-0.2-0.2-0.5-0.4-0.7c-0.7-1.3-1.3-2.6-1.9-4c-0.3-0.6-0.5-1.2-0.7-1.8c0-0.1,0-0.1-0.1-0.2c-0.1-0.3-0.2-0.7-0.4-1
			c-1.9-5.5-3.1-11.6-3.5-18.3L19,620.5H24.4z M15,618.5v-3h1.8L15,618.5z M17.4,614.5H15v-5.6L17.4,614.5L17.4,614.5z M14,608.9
			v5.6h-2.4l0,0L14,608.9z M14,615.5v3l-1.8-3H14z M18,620.5v2h-7v-2v-0.1H18z M10,620.7v5.6c-1.2-0.4-2-1.5-2-2.8
			C8,622.2,8.8,621.1,10,620.7z M2,629.5c0-4.3,2.1-8,6.2-8.8c-0.7,0.7-1.2,1.7-1.2,2.8c0,1.9,1.3,3.4,3,3.9v4.3c-1.7,0.4-3,2-3,3.9
			c0,1.1,0.4,2.1,1.2,2.8C4.1,637.5,2,633.9,2,629.5z M8,635.5c0-1.3,0.8-2.4,2-2.8v5.6C8.8,637.9,8,636.8,8,635.5z M11,643.2
			l2.2,3.5l-2.2,3.5V643.2z M11,672.6v-2h7v2H11z M74,679.6h-2c-1.7,0-3,1.3-3,3v3H45h-1.1H18v-3c0-1.7-1.3-3-3-3h-2v-5h1v4h1
			c2.2,0,4,1.8,4,4v1v1h24.9H45h23v-1v-1c0-2.2,1.8-4,4-4h1v-4h1V679.6z M76,672.6h-7v-2h7V672.6z M76,669.6h-7v-2h7V669.6z
			 M76,666.5L76,666.5L76,666.5l-3.2-4.9l0.6-1l2.6,4V666.5z M76,663.6l-2.2-3.5l2.2-3.5V663.6z M76,655.7l-2.6,4l-0.6-1l3.1-4.9
			l0,0l0,0V655.7z M76,653.1L76,653.1L76,653.1l-3.2-4.9l0.6-1l2.6,4V653.1z M73.8,646.7l2.2-3.5v7L73.8,646.7z"/>
		<path fill="#FFFFFF" d="M42.7,609.2c0,0,0.2-0.2,0.7-0.2c0.2,0,0.7,0.2,0.7,0.2l0.2-3.7c0,0-0.7,0.2-1.2,0.2s-1,0-1,0L42.7,609.2z
			"/>
		<path fill="#FFFFFF" d="M31.5,605.6c0-0.5,0.5-0.7,0.5-0.7s-2.9,0-5.1,0c-1.7,0-3.7,0.2-4.1,1.2c-0.5,1.5,0.2,3.9,0.2,3.9
			s0.5,0,0.7,0c0.5,0,0.7,0.2,0.7,0.2s-0.2-1.2-0.2-1.9c-0.2-0.7,0-1.2,0.2-1.5c0.5-0.5,2.4-0.7,3.4-0.7c1.2-0.2,3.7,0,3.7,0
			S31.5,605.8,31.5,605.6z"/>
		<path fill="#FFFFFF" d="M41.7,605.6c0,0-3.4-1.2-5.6-1.2c-2.2,0-3.9,0.2-4.1,1c-0.7,1.2,0.2,4.6,0.2,4.6s0.5-0.2,1.2-0.2
			c0.2,0,0.5,0,0.5,0s0-1.2,0-1.9c-0.2-0.5-0.2-1.5,0.2-1.9c0.2-0.5,1-0.5,2.9-0.5s4.6,0.7,4.6,0.7V605.6z"/>
		<path fill="#FFFFFF" d="M62.6,610c0.2,0,0.7,0,0.7,0s0.7-2.7,0.2-3.9c-0.5-1-2.4-1.2-4.1-1.2c-2.2,0-5.1,0-5.1,0s0.2,0.2,0.2,0.5
			s0,0.5,0,0.5s2.4-0.2,3.7,0c1.2,0.2,2.9,0.2,3.4,0.7c0.5,0.5,0.5,1,0.5,1.7s-0.2,1.9-0.2,1.9S62.2,610,62.6,610z"/>
		<path fill="#FFFFFF" d="M52.9,609.7c0.7,0,1.2,0.2,1.2,0.2s0.7-3.2,0.2-4.6c-0.2-0.7-1.9-1-4.1-1c-2.2,0-5.4,1.2-5.4,1.2v0.5
			c0,0,2.7-0.7,4.6-0.7s2.7,0,2.9,0.5s0.2,1.5,0.2,1.9c0,1-0.2,1.9-0.2,1.9S52.6,609.7,52.9,609.7z"/>
		<path fill="#FFFFFF" d="M25.1,611c0,0,0,0.5,0,0.7c0,0,1.5-1.2,3.2-1.9c1.7-0.7,3.2-1,3.2-1v-0.5c0,0-1.5,0.2-3.4,1
			C26.3,610,25.1,611,25.1,611z"/>
		<path fill="#FFFFFF" d="M34.1,608.5c0,0,3.9-0.5,7.6-0.5v-0.5c-2.2,0-6.1,0.2-7.6,0.5V608.5z"/>
		<path fill="#FFFFFF" d="M58.3,609.5c-1.9-0.7-3.4-1-3.4-1v0.5c0,0,1.5,0.2,3.2,1c1.7,0.7,2.9,1.7,2.9,1.7c-0.2-0.5,0-0.7,0-0.7
			S60,610.2,58.3,609.5z"/>
		<path fill="#FFFFFF" d="M44.6,608c3.7,0,7.6,0.5,7.6,0.5V608c-1.5-0.2-5.6-0.5-7.6-0.5V608z"/>
	</g>
</g>
</svg>
